<?xml version="1.0" standalone="no"?>
<!DOCTYPE svg PUBLIC "-//W3C//DTD SVG 1.1//EN" "http://www.w3.org/Graphics/SVG/1.1/DTD/svg11.dtd" >
<svg xmlns="http://www.w3.org/2000/svg">
<metadata>
This is a custom SVG webfont generated by Font Squirrel.
Copyright   : Copyright 19901993 Bitstream Inc  All rights reserved
</metadata>
<defs>
<font id="BauerBodoniBlackItalicBTBlkIt" horiz-adv-x="1024" >
<font-face units-per-em="2048" ascent="1638" descent="-410" />
<missing-glyph horiz-adv-x="559" />
<glyph unicode=" "  horiz-adv-x="559" />
<glyph unicode="&#x09;" horiz-adv-x="559" />
<glyph unicode="&#xa0;" horiz-adv-x="559" />
<glyph unicode="!" horiz-adv-x="692" d="M29 150q0 72 50 122t124 50q73 0 122.5 -49.5t49.5 -122.5q0 -75 -49.5 -125t-122.5 -50q-74 0 -124 50.5t-50 124.5zM256 475q24 78 36.5 181t12.5 227q0 75 -7 147.5t-22 140.5q73 41 139 97t130 131q21 -56 54.5 -115t84.5 -129q-154 -193 -254 -367.5t-141 -324.5z " />
<glyph unicode="&#x22;" horiz-adv-x="717" d="M74 1346q0 54 29.5 86t80.5 32q52 0 82.5 -31.5t30.5 -84.5q0 -8 -1 -17t-3 -22l-86 -463h-43l-86 462q-3 16 -3.5 23.5t-0.5 14.5zM420 1346q0 54 29.5 86t80.5 32t81 -31.5t30 -84.5q0 -16 -0.5 -24.5t-1.5 -15.5l-86 -462h-45l-84 463q-3 15 -3.5 22.5t-0.5 14.5z" />
<glyph unicode="#" horiz-adv-x="1575" d="M23 381l86 229h272l82 234h-285l86 229h281l139 393h248l-139 -393h241l140 393h247l-139 -393h270l-86 -229h-266l-82 -234h277l-84 -229h-275l-141 -393h-248l141 393h-241l-141 -393h-248l141 393h-276zM621 608h253l84 236h-253z" />
<glyph unicode="$" horiz-adv-x="1118" d="M-88 25l125 438h32q-2 -18 -3.5 -36t-2.5 -36q0 -106 56 -188t160 -127l143 520q-152 76 -221.5 164t-69.5 203q0 171 138.5 280t361.5 109l45 157l37 -8l-43 -153q32 -6 62 -14.5t56 -20.5l54 190l37 -10l-54 -188q44 -15 74 -22t47 -7q31 0 63 17t62 50h29l-127 -434 h-35q1 9 2 23q6 69 6 96q0 75 -35.5 137.5t-97.5 96.5l-113 -414q150 -70 221.5 -169t71.5 -237q0 -188 -140.5 -319t-348.5 -131q-7 0 -20.5 1t-20.5 1l-80 -287l-37 12l78 277q-30 4 -60.5 11t-62.5 18l-82 -304l-37 9l84 305l-38 17q-117 52 -158 52t-71 -20t-50 -59h-37 zM313 63q36 -9 65 -15t56 -9l131 473l-61 40l-47 28zM428 1094q0 -44 22.5 -79t69.5 -67l98 361q-80 -6 -135 -68.5t-55 -146.5zM476 37q99 5 167 82.5t68 185.5q0 61 -27.5 106.5t-83.5 80.5zM553 926l55 -30q29 -16 58 -30l110 410q-33 12 -61 20t-56 12z" />
<glyph unicode="%" horiz-adv-x="1599" d="M84 807q0 93 32 199.5t85 189.5q57 90 129 135t157 45q113 0 175.5 -70.5t62.5 -197.5q0 -97 -29 -201t-80 -186q-56 -91 -128.5 -137.5t-157.5 -46.5q-118 0 -182 70t-64 200zM244 641q0 -32 18.5 -50t50.5 -18q33 0 56 27t39 84l149 522q5 17 7.5 34.5t2.5 31.5 q0 31 -17.5 48t-49.5 17q-34 0 -52.5 -17.5t-39.5 -88.5l-158 -543q-3 -12 -4.5 -23.5t-1.5 -23.5zM295 -29l928 1399h92l-930 -1399h-90zM881 236q0 94 31.5 200.5t84.5 190.5q57 88 129 133t158 45q113 0 175.5 -70t62.5 -196q0 -98 -29 -201.5t-80 -185.5 q-56 -92 -128.5 -138.5t-158.5 -46.5q-117 0 -181 70t-64 199zM1040 78q0 -32 18.5 -50t51.5 -18t55.5 27t38.5 84l150 523q5 17 7.5 34.5t2.5 30.5q0 31 -18 48t-50 17q-33 0 -51.5 -18t-40.5 -88l-158 -544q-3 -12 -4.5 -24t-1.5 -22z" />
<glyph unicode="&#x26;" horiz-adv-x="1481" d="M14 375q0 128 91 223t292 176q-6 38 -9 73t-3 66q0 178 112 305.5t261 127.5q98 0 159.5 -58.5t61.5 -150.5q0 -97 -69 -173t-197 -120q29 -91 68.5 -186t88.5 -195q104 224 173.5 296t160.5 72q68 0 113 -42.5t45 -106.5q0 -62 -40 -103.5t-99 -41.5q-57 0 -100.5 40 t-43.5 91v22q0 16 -4 21.5t-12 5.5q-23 0 -65.5 -73.5t-108.5 -225.5q78 -149 149.5 -221t141.5 -72q34 0 71.5 19.5t81.5 60.5l23 -27q-101 -103 -197.5 -152t-202.5 -49q-77 0 -142 38t-130 120q-85 -78 -163.5 -116.5t-153.5 -38.5q-143 0 -248 117.5t-105 277.5z M299 578q0 -67 27.5 -150.5t74.5 -159.5q42 -66 87 -102.5t85 -36.5q21 0 43.5 9t44.5 26q-90 139 -152.5 282t-98.5 291q-57 -13 -84 -52t-27 -107zM643 1155q0 -43 15.5 -113.5t46.5 -164.5q110 30 176.5 102t66.5 158q0 69 -48.5 117.5t-117.5 48.5q-65 0 -102 -39 t-37 -109z" />
<glyph unicode="'" horiz-adv-x="371" d="M74 1346q0 53 31 85.5t81 32.5q51 0 81 -31.5t30 -84.5q0 -8 -1 -17t-3 -22l-86 -463h-43l-86 462q-3 16 -3.5 23.5t-0.5 14.5z" />
<glyph unicode="(" horiz-adv-x="758" d="M125 330q0 323 176 587.5t537 481.5l20 -23q-112 -77 -191.5 -196.5t-148.5 -317.5q-85 -241 -129.5 -479.5t-44.5 -448.5q0 -103 15.5 -187.5t48.5 -158.5l-17 -14q-130 189 -198 382t-68 374z" />
<glyph unicode=")" horiz-adv-x="758" d="M-197 -406q112 78 192 197.5t148 317.5q85 240 129.5 479t44.5 448q0 101 -16 187t-49 161l16 15q132 -191 200.5 -383.5t68.5 -372.5q0 -323 -177 -587.5t-538 -481.5z" />
<glyph unicode="*" horiz-adv-x="1229" d="M252 1075q0 15 9.5 23t29.5 10l108 12l4 51q2 20 8 28.5t17 8.5q7 0 82.5 -92t171.5 -155q-38 115 -98 213.5t-60 99.5q0 7 6.5 12.5t14.5 5.5q5 0 10 -0.5t10 -1.5l53 -12q3 6 7 16q43 105 73 105q19 0 37 -28.5t41 -94.5l53 12q3 1 6.5 1.5t8.5 0.5q13 0 21.5 -6.5 t8.5 -15.5q0 -7 -23 -38q-100 -129 -132 -265q95 60 170 150.5t88 90.5q8 0 11.5 -5.5t4.5 -18.5l9 -66q13 -1 35 -3q106 -7 106 -38q0 -15 -25 -43t-69 -61l34 -57q3 -6 4.5 -10.5t2.5 -8.5q0 -8 -6.5 -14.5t-14.5 -6.5q-6 1 -34 10q-142 48 -283 48h-29q95 -78 206 -124.5 t111 -55.5q0 -8 -5 -14.5t-15 -10.5l-53 -22l18 -80q2 -7 3 -15t1 -20q0 -15 -8 -24t-23 -9q-14 0 -29.5 5.5t-29.5 15.5l-53 36l-47 -45q-8 -7 -14.5 -10.5t-14.5 -3.5q-13 0 -23 119.5t-49 228.5q-26 -64 -39.5 -140t-13.5 -155v-28q0 -12 -5 -19.5t-13 -7.5t-21 11 t-47 46l-27 -15q-78 -44 -92 -44q-15 0 -21.5 8.5t-6.5 30.5q0 15 5 40t17 66l-63 33q-11 5 -15.5 10t-5.5 13q0 8 112 52.5t210 123.5q-6 0 -18 1q-38 3 -52 3q-110 0 -236 -46q-31 -12 -38 -12q-11 1 -15 4t-4 9t9 27q3 6 3 7l21 52l-72 67q-10 10 -14 18.5t-4 16.5z" />
<glyph unicode="+" horiz-adv-x="1706" d="M254 496v231h481v494h238v-494h479v-231h-479v-496h-238v496h-481z" />
<glyph unicode="," horiz-adv-x="559" d="M-35 -307q136 21 208.5 100.5t74.5 208.5q-22 -9 -42 -13.5t-40 -4.5q-72 0 -116 40.5t-44 106.5q0 80 43 128t115 48q85 0 137.5 -62t52.5 -165q0 -164 -105 -280t-278 -142z" />
<glyph unicode="-" horiz-adv-x="920" d="M96 336l56 227h591l-55 -227h-592z" />
<glyph unicode="." horiz-adv-x="559" d="M-6 160q0 77 53.5 130.5t130.5 53.5q78 0 131 -53.5t53 -130.5q0 -78 -53 -131.5t-131 -53.5q-77 0 -130.5 53.5t-53.5 131.5z" />
<glyph unicode="/" horiz-adv-x="569" d="M-231 -190l872 1589h72l-875 -1589h-69z" />
<glyph unicode="0" horiz-adv-x="1118" d="M25 420q0 156 53 332.5t143 318.5q96 151 214.5 223t271.5 72q181 0 284 -116.5t103 -323.5q0 -161 -49 -334.5t-134 -310.5q-94 -155 -215 -234.5t-262 -79.5q-195 0 -302 119t-107 334zM291 129q0 -53 30 -85t80 -32q59 0 98 45t66 146l248 897q9 31 13.5 62t4.5 52 q0 53 -29 81t-83 28q-60 0 -92 -33t-64 -147l-260 -932q-6 -22 -9 -42t-3 -40z" />
<glyph unicode="1" horiz-adv-x="1118" d="M27 0l10 33h174l313 1126l-274 -92l-8 33l708 266l-362 -1333h225l-8 -33h-778z" />
<glyph unicode="2" horiz-adv-x="1118" d="M-102 0q58 202 437 490l81 61q130 101 207 249t77 298q0 103 -58 160t-163 57q-97 0 -162.5 -41t-99.5 -123q27 16 50.5 23.5t45.5 7.5q59 0 97.5 -39t38.5 -99q0 -63 -41.5 -105t-104.5 -42q-62 0 -100.5 46.5t-38.5 121.5q0 136 114 218.5t306 82.5q212 0 334 -93.5 t122 -254.5q0 -155 -79 -267.5t-246 -195.5q-85 -42 -292.5 -118t-282.5 -150q87 7 165.5 10.5t147.5 3.5h327q73 0 102.5 27t55.5 112l33 -6l-148 -434h-925z" />
<glyph unicode="3" horiz-adv-x="1118" d="M-12 231q0 69 43.5 117.5t103.5 48.5q63 0 105.5 -43t42.5 -106q0 -65 -41 -108.5t-101 -43.5q-7 0 -19 1.5t-27 4.5q41 -43 89 -64.5t103 -21.5q71 0 126 35t97 107q13 20 28 59t33 96q29 93 42.5 159t13.5 114q0 49 -50.5 82.5t-130.5 33.5q-10 0 -21 -0.5t-34 -2.5 l8 36h23q95 0 151.5 15t88.5 49q36 38 65 134t29 193q0 93 -50.5 146t-136.5 53q-48 0 -94 -17t-82 -48h6q72 0 116 -35.5t44 -91.5q0 -70 -42 -116t-105 -46q-60 0 -99 40.5t-39 102.5q0 106 106.5 179t268.5 73q191 0 314.5 -92.5t123.5 -233.5q0 -148 -95 -238t-269 -106 q104 -28 164.5 -108.5t60.5 -190.5q0 -199 -149 -314.5t-410 -115.5q-179 0 -290 74t-111 190z" />
<glyph unicode="4" horiz-adv-x="1118" d="M-68 354l938 987h224l-232 -835h195l-41 -152h-195l-90 -325h174l-8 -29h-666l11 29h151l88 325h-549zM123 506h401l162 590z" />
<glyph unicode="5" horiz-adv-x="1118" d="M23 233q0 71 43.5 118.5t107.5 47.5q63 0 107.5 -43t44.5 -104q0 -76 -41.5 -119t-114.5 -43q-15 0 -22.5 0.5t-13.5 1.5q34 -39 75.5 -58.5t91.5 -19.5q59 0 104 28.5t84 92.5q14 24 31.5 70t34.5 104l8 27q51 177 51 231q0 83 -47 128.5t-131 45.5q-60 0 -133.5 -28 t-148.5 -80l198 733q76 -39 158 -58.5t174 -19.5q90 0 184 19.5t191 58.5q-74 -183 -223 -286t-338 -103q-41 0 -91.5 7t-113.5 22l-82 -295q99 57 189.5 84.5t177.5 27.5q169 0 269.5 -97.5t100.5 -260.5q0 -213 -162.5 -355.5t-410.5 -142.5q-155 0 -253.5 76.5 t-98.5 189.5z" />
<glyph unicode="6" horiz-adv-x="1118" d="M35 442q0 175 56.5 359t150.5 315q89 128 204.5 189t266.5 61q109 0 190.5 -26t143.5 -80l-27 -25q-39 38 -84 56t-100 18q-125 0 -211 -129.5t-152 -415.5q51 51 113.5 76.5t134.5 25.5q134 0 218.5 -93t84.5 -243q0 -245 -154.5 -404t-392.5 -159q-209 0 -325.5 125 t-116.5 350zM315 127q0 -52 29.5 -83.5t77.5 -31.5q53 0 88 43t65 150q59 200 91 332t32 172q0 42 -23 64t-67 22q-54 0 -96.5 -42.5t-75.5 -130.5q-5 -11 -30 -107l-68 -259q-12 -47 -17.5 -78t-5.5 -51z" />
<glyph unicode="7" horiz-adv-x="1118" d="M184 844l162 522l31 -8l-17 -60q93 -16 186 -24t197 -8q142 0 267 24.5t245 75.5l19 -31q-358 -361 -513 -574t-155 -339q0 -23 7 -49t20 -54q7 -15 25 -45q51 -84 51 -141q0 -70 -48 -118t-118 -48q-71 0 -116.5 52.5t-45.5 134.5q0 123 120 317.5t421 546.5 q-97 -37 -209 -56.5t-234 -19.5q-43 0 -99 5.5t-124 17.5l-39 -129z" />
<glyph unicode="8" horiz-adv-x="1118" d="M39 352q0 129 77.5 220.5t221.5 132.5q-58 59 -86.5 125.5t-28.5 144.5q0 171 124.5 281t320.5 110q183 0 299 -91t116 -235q0 -121 -64.5 -198.5t-195.5 -112.5q71 -74 105.5 -156t34.5 -180q0 -177 -133.5 -301.5t-325.5 -124.5q-216 0 -340.5 103.5t-124.5 281.5z M76 352q0 -126 91 -220.5t212 -94.5q108 0 176 69.5t68 182.5q0 76 -60.5 166t-200.5 217q-137 -37 -211.5 -120.5t-74.5 -199.5zM563 1108q0 -65 54 -144t186 -204q116 30 178.5 101.5t62.5 174.5q0 115 -80 194t-196 79q-84 0 -144.5 -59t-60.5 -142z" />
<glyph unicode="9" horiz-adv-x="1118" d="M63 84l27 27q40 -39 85.5 -57.5t98.5 -18.5q124 0 210.5 129.5t152.5 417.5q-52 -52 -114.5 -78.5t-133.5 -26.5q-134 0 -218.5 93.5t-84.5 242.5q0 244 153.5 398.5t393.5 154.5q211 0 326.5 -121t115.5 -344q0 -175 -56.5 -358.5t-150.5 -315.5q-92 -132 -208.5 -196 t-262.5 -64q-101 0 -184 29t-150 88zM412 637q0 -43 22 -64.5t66 -21.5q55 0 98.5 42t75.5 128q5 12 30 108l68 258q10 41 15.5 73.5t5.5 56.5q0 51 -28 80.5t-77 29.5q-55 0 -90.5 -42t-65.5 -144q-56 -194 -88 -328t-32 -176z" />
<glyph unicode=":" horiz-adv-x="692" d="M10 150q0 72 50.5 122t123.5 50t122.5 -50t49.5 -122q0 -74 -49.5 -124.5t-122.5 -50.5t-123.5 50.5t-50.5 124.5zM174 752q0 73 49 122.5t123 49.5q73 0 122.5 -49.5t49.5 -122.5t-50 -123.5t-122 -50.5q-73 0 -122.5 50t-49.5 124z" />
<glyph unicode=";" horiz-adv-x="692" d="M-31 -307q136 21 208.5 100.5t74.5 208.5q-22 -9 -42 -13.5t-40 -4.5q-72 0 -116 40.5t-44 106.5q0 80 44 128t116 48q85 0 136.5 -62t51.5 -165q0 -164 -105 -280t-278 -142zM174 752q0 73 49 122.5t123 49.5q73 0 122.5 -49.5t49.5 -122.5t-50 -123.5t-122 -50.5 q-73 0 -122.5 50t-49.5 124z" />
<glyph unicode="&#x3c;" horiz-adv-x="1706" d="M264 494v233l1178 487v-253l-854 -351l854 -348v-254z" />
<glyph unicode="=" horiz-adv-x="1706" d="M254 272v230h1198v-230h-1198zM254 719v231h1198v-231h-1198z" />
<glyph unicode="&#x3e;" horiz-adv-x="1706" d="M264 8v254l854 348l-854 351v253l1178 -487v-233z" />
<glyph unicode="?" d="M78 160q0 77 53 130.5t131 53.5q77 0 129.5 -53t52.5 -131t-52.5 -131.5t-129.5 -53.5q-78 0 -131 53.5t-53 131.5zM223 1167q0 101 90 166.5t232 65.5q176 0 289.5 -99.5t113.5 -252.5q0 -147 -83 -242t-331 -201l-36 -15q-139 -58 -166 -138l-33 2l68 266 q20 79 47.5 118t80.5 72l35 21q199 120 199 244q0 84 -60.5 139t-152.5 55q-45 0 -76.5 -15.5t-31.5 -35.5q0 -4 31.5 -13.5t49.5 -23.5q23 -18 36.5 -50t13.5 -69q0 -65 -43.5 -106t-112.5 -41q-71 0 -115.5 43t-44.5 110z" />
<glyph unicode="@" horiz-adv-x="2019" d="M129 539q0 202 87.5 381t252.5 313q137 112 302.5 169.5t350.5 57.5q349 0 559.5 -189.5t210.5 -504.5q0 -164 -59 -302t-172 -239q-59 -52 -128 -80t-140 -28q-98 0 -156.5 52.5t-65.5 143.5q-60 -95 -130 -143.5t-148 -48.5q-156 0 -241 90t-85 256q0 116 50.5 223.5 t146.5 196.5q68 62 150 95.5t167 33.5q96 0 150 -44t67 -132l48 157h208l-174 -624q-8 -34 -11 -53t-3 -35q0 -45 19 -72t51 -27q30 0 84.5 27.5t101.5 69.5q97 87 148 211.5t51 273.5q0 121 -34 219.5t-101 171.5q-99 109 -235.5 166t-299.5 57q-139 0 -265 -39.5 t-233 -117.5q-166 -120 -255 -303t-89 -404q0 -336 205 -531.5t557 -195.5q163 0 315 49.5t316 157.5l41 -57q-151 -113 -321 -170.5t-351 -57.5q-432 0 -687 224.5t-255 601.5zM801 352q0 -71 32.5 -113t86.5 -42q59 0 115 60.5t108 180.5q42 99 67 198.5t25 166.5 t-27.5 103t-79.5 36q-60 0 -110 -44t-98 -140q-57 -112 -88 -218.5t-31 -187.5z" />
<glyph unicode="A" horiz-adv-x="1128" d="M-289 0l9 33q89 5 159 60.5t158 199.5l653 1073h139l140 -1333h118v-33h-626l10 33h113l-31 354h-422l-65 -111q-16 -27 -26.5 -61t-10.5 -57q0 -60 37 -91t112 -35l-8 -32h-459zM152 422h397l-53 567z" />
<glyph unicode="B" horiz-adv-x="1413" d="M-113 0l9 33h116l348 1298h-116l8 35h639q243 0 355 -70t112 -221q0 -159 -125 -254t-363 -114q189 -17 285 -94t96 -212q0 -193 -168 -297t-483 -104h-713zM416 33q9 -1 20.5 -1.5t32.5 -0.5q82 0 143 22.5t107 69.5q54 56 91.5 162t37.5 207t-61.5 150.5t-186.5 49.5 h-8zM602 725h12q96 0 158 27t107 88q37 51 65.5 147.5t28.5 181.5q0 90 -39.5 127t-134.5 37q-6 0 -18.5 -1t-18.5 -1z" />
<glyph unicode="C" horiz-adv-x="1352" d="M47 551q0 182 74 346t213 289q116 104 254.5 158.5t285.5 54.5q132 0 276 -52.5t163 -52.5q27 0 53 13.5t51 40.5l29 -9l-131 -473l-35 1q1 12 1.5 26.5t0.5 42.5q0 193 -88.5 302.5t-245.5 109.5q-116 0 -190 -65t-137 -226q-37 -91 -72.5 -206.5t-71.5 -258.5 q-31 -130 -44 -207t-13 -131q0 -111 70.5 -175.5t191.5 -64.5q127 0 246.5 68.5t222.5 200.5l27 -27q-106 -144 -240 -216.5t-295 -72.5q-281 0 -438.5 154.5t-157.5 429.5z" />
<glyph unicode="D" horiz-adv-x="1587" d="M-117 0l8 33h117l348 1298h-116l8 35h579q192 0 295.5 -17t167.5 -57q118 -70 178 -189t60 -284q0 -217 -98 -400.5t-273 -293.5q-107 -67 -251 -96t-433 -29h-590zM412 33q2 0 6 -1q71 -3 104 -3q144 0 231.5 38.5t151.5 129.5q41 58 76.5 140t81.5 224q52 167 76 294.5 t24 229.5q0 137 -74 192.5t-258 55.5q-27 0 -42 -0.5t-27 -1.5z" />
<glyph unicode="E" horiz-adv-x="1356" d="M-115 0l11 33h116l348 1298h-118l10 35h1122l-110 -436h-35q1 10 1.5 21t0.5 32q0 178 -97 264t-298 86q-29 0 -45 -0.5t-29 -1.5l-166 -602q13 -1 28 -1.5t44 -0.5q148 0 234.5 49t131.5 158h33l-133 -506l-33 6q0 2 1 7q3 37 3 55q0 105 -59.5 151.5t-194.5 46.5 q-26 0 -40.5 -0.5t-26.5 -1.5l-168 -659q11 -1 25 -1.5t42 -0.5q237 0 400 95.5t268 295.5h35l-123 -422h-1178z" />
<glyph unicode="F" horiz-adv-x="1356" d="M-115 0l11 33h116l348 1298h-118l10 35h1122l-110 -436h-35q1 10 1.5 21t0.5 32q0 178 -97 264t-298 86q-29 0 -45 -0.5t-29 -1.5l-166 -602q13 -1 28 -1.5t44 -0.5q148 0 234.5 49t131.5 158h33l-133 -506l-33 6q0 2 1 7q3 37 3 55q0 105 -59.5 151.5t-194.5 46.5 q-26 0 -40.5 -0.5t-26.5 -1.5l-168 -659h116l-10 -33h-637z" />
<glyph unicode="G" horiz-adv-x="1526" d="M53 561q0 156 67.5 312t188.5 278q120 122 277.5 185t341.5 63q74 0 199 -43t178 -43q32 0 57.5 13t46.5 40h35l-139 -500l-33 6l1 7q7 59 7 88q0 170 -91.5 279.5t-232.5 109.5q-116 0 -194.5 -75t-145.5 -253q-89 -240 -140.5 -448t-51.5 -312q0 -117 58.5 -188.5 t154.5 -71.5q120 0 192.5 105.5t135.5 392.5h-103l10 35h570l-8 -35h-86l-84 -311q-110 -107 -262.5 -167.5t-309.5 -60.5q-127 0 -249 42t-199 112q-95 84 -143 194.5t-48 245.5z" />
<glyph unicode="H" horiz-adv-x="1587" d="M-115 0l11 33h116l348 1298h-116l8 35h635l-8 -35h-117l-162 -610h408l161 610h-116l10 35h635l-8 -35h-119l-346 -1298h116l-8 -33h-637l11 33h116l174 655h-407l-174 -655h114l-8 -33h-637z" />
<glyph unicode="I" horiz-adv-x="782" d="M-115 0l11 33h116l348 1298h-116l8 35h635l-8 -35h-117l-346 -1298h114l-8 -33h-637z" />
<glyph unicode="J" horiz-adv-x="1010" d="M-231 39q0 89 57 149t143 60q69 0 116.5 -50t47.5 -122q0 -77 -51 -128.5t-127 -51.5q-20 0 -43.5 7t-50.5 21q37 -54 82.5 -81t99.5 -27q84 0 144.5 73t101.5 226l327 1216h-116l8 35h635l-8 -35h-117l-258 -966q-43 -162 -84 -253t-94 -151q-85 -95 -204.5 -147 t-254.5 -52q-153 0 -253.5 80.5t-100.5 196.5z" />
<glyph unicode="K" horiz-adv-x="1413" d="M-113 0l9 33h116l348 1298h-116l8 35h637l-10 -35h-115l-164 -610l414 321q67 52 99 95.5t32 83.5q0 52 -28.5 77t-94.5 33l8 35h582l-8 -35q-61 0 -153.5 -41t-186.5 -112l-355 -267l385 -878h119v-33h-663l10 33h104l-274 653l-174 -653h114l-8 -33h-635z" />
<glyph unicode="L" horiz-adv-x="1290" d="M-115 0l11 33h116l348 1298h-118l10 35h639l-8 -35h-121l-346 -1298h67q237 0 398.5 94t269.5 295h35l-123 -422h-1178z" />
<glyph unicode="M" horiz-adv-x="1792" d="M-178 0l10 35q86 7 144.5 82t99.5 229l266 985h-139l10 35h492l88 -1053l616 1053h498l-9 -35h-122l-344 -1298h116l-8 -33h-618l8 33h106l334 1200l-723 -1233h-205l-92 1233l-239 -885q-14 -56 -19.5 -88t-5.5 -57q0 -74 41 -116t127 -54l-10 -33h-422z" />
<glyph unicode="N" horiz-adv-x="1427" d="M-168 0l8 35q86 6 145.5 81.5t100.5 229.5l221 825l-80 160h-96l8 35h502l508 -1026l182 678q14 51 19.5 84.5t5.5 64.5q0 72 -39.5 111t-126.5 53l8 35h424l-10 -35q-83 -8 -145.5 -86t-102.5 -225l-274 -1020h-201l-565 1126l-201 -778q-3 -11 -8 -31q-21 -84 -21 -116 q0 -72 43 -115t125 -53l-8 -33h-422z" />
<glyph unicode="O" horiz-adv-x="1587" d="M55 563q0 164 58 309.5t172 266.5q117 125 280 192.5t346 67.5q276 0 444.5 -165t168.5 -435q0 -141 -45 -271t-131 -241q-121 -155 -296 -237.5t-382 -82.5q-274 0 -444.5 165t-170.5 431zM418 262q0 -119 61 -186.5t168 -67.5q92 0 172.5 71.5t128.5 194.5 q32 85 65.5 190t65.5 222q44 156 63 252.5t19 159.5q0 116 -59 188t-154 72q-110 0 -189.5 -70t-135.5 -217q-94 -244 -149.5 -471t-55.5 -338z" />
<glyph unicode="P" horiz-adv-x="1366" d="M-113 0l11 33h116l348 1298h-118l10 35h623q287 0 395 -70t108 -241q0 -120 -66 -224.5t-175 -158.5q-57 -28 -145 -39.5t-279 -11.5h-142l-155 -588h114l-8 -33h-637zM582 654q27 -3 41 -4t24 -1q88 0 147 27t89 82q50 86 83 204t33 209q0 86 -44.5 124t-143.5 38 q-20 0 -30.5 -0.5t-18.5 -1.5z" />
<glyph unicode="Q" horiz-adv-x="1587" d="M53 563q0 162 59.5 309t172.5 267q117 125 279 192.5t345 67.5q276 0 445.5 -165.5t169.5 -434.5q0 -319 -203.5 -546t-540.5 -280q-20 -73 -30.5 -122.5t-10.5 -77.5q0 -81 52 -118.5t163 -37.5q21 0 33 0.5t22 1.5l1 -35q-46 -4 -111.5 -6t-163.5 -2q-211 0 -284.5 41 t-73.5 143q0 27 12 80t43 164q-193 85 -286 222t-93 337zM416 262q0 -119 61 -186.5t168 -67.5q92 0 172.5 71.5t128.5 194.5q32 85 65.5 190t65.5 222q44 156 63 252.5t19 159.5q0 117 -58 188.5t-153 71.5q-110 0 -189.5 -70t-135.5 -217q-95 -245 -151 -472.5t-56 -336.5 z" />
<glyph unicode="R" horiz-adv-x="1403" d="M-115 0l11 33h116l348 1300h-116l8 33h698q218 0 313 -67t95 -218q0 -163 -128.5 -257.5t-375.5 -112.5q162 -17 242 -81t80 -175q0 -64 -34 -168t-34 -142q0 -29 14 -45t39 -16q20 0 51 17t70 51l18 -29q-83 -79 -165.5 -117.5t-167.5 -38.5q-113 0 -178.5 54t-65.5 147 q0 73 42 208t42 189q0 70 -39.5 98.5t-138.5 28.5h-39l-174 -659h114l-8 -33h-637zM600 725h27q77 0 130.5 19.5t94.5 62.5q50 52 87.5 160.5t37.5 208.5q0 83 -50 120t-165 37z" />
<glyph unicode="S" horiz-adv-x="1247" d="M-39 27l123 452l31 -12v-33q0 -197 100 -313.5t268 -116.5q142 0 235 75t93 187q0 36 -10.5 68t-32.5 61q-39 54 -232 160l-94 51q-124 71 -178.5 155.5t-54.5 203.5q0 186 148.5 310t375.5 124q96 0 215 -34t148 -34q38 0 68.5 18.5t52.5 55.5l34 -4l-121 -440h-34v32 q0 170 -83.5 269.5t-224.5 99.5q-121 0 -198.5 -64t-77.5 -161q0 -69 38 -117.5t142 -104.5l84 -42q157 -77 225 -144q47 -46 70 -107.5t23 -138.5q0 -222 -168.5 -369t-425.5 -147q-120 0 -263 48t-163 48q-25 0 -45 -12t-37 -37z" />
<glyph unicode="T" horiz-adv-x="1241" d="M84 948l115 418h1177l-114 -418l-31 1q3 19 4.5 40t1.5 41q0 131 -68 207.5t-198 93.5l-346 -1298h114l-8 -33h-637l10 33h117l348 1298q-148 -17 -263 -114.5t-187 -268.5h-35z" />
<glyph unicode="U" horiz-adv-x="1507" d="M106 324q0 42 9.5 96t29.5 131l213 782h-118l8 33h635l-9 -33h-118l-219 -819q-24 -85 -36 -153.5t-12 -114.5q0 -106 71 -167t196 -61q83 0 155.5 24.5t130.5 72.5q57 45 98 125.5t89 257.5l143 522q14 49 19.5 82.5t5.5 66.5q0 72 -39.5 111t-126.5 53l10 33h422 l-10 -35q-84 -6 -144 -81.5t-102 -227.5l-145 -535q-48 -176 -84 -253.5t-84 -124.5q-76 -74 -176.5 -108t-247.5 -34q-285 0 -424.5 88.5t-139.5 268.5z" />
<glyph unicode="V" horiz-adv-x="1139" d="M14 1331l11 35h634l-16 -35h-123l80 -977l373 613q41 66 62.5 121t21.5 94q0 68 -41 107t-114 42l7 35h459l-12 -35q-73 -6 -133 -59t-152 -205l-639 -1067h-182l-113 1331h-123z" />
<glyph unicode="W" horiz-adv-x="1706" d="M61 1331l9 35h571l-8 -35h-96l84 -911l241 479l-37 432h-94l10 35h568l-11 -35h-94l82 -911l307 608q21 44 32 84.5t11 75.5q0 64 -37.5 99.5t-113.5 43.5l8 35h446l-8 -35q-81 -6 -150.5 -75.5t-150.5 -227.5l-518 -1028h-168l-76 840l-424 -840h-168l-118 1331h-97z " />
<glyph unicode="X" horiz-adv-x="1071" d="M-274 0l8 33q99 8 358 269l23 24l260 262l-295 743h-100l10 35h624v-35h-125l173 -436l194 199q31 31 49.5 67.5t18.5 67.5q0 47 -35 74.5t-96 27.5l8 35h467l-11 -35q-67 -9 -131.5 -46t-134.5 -107l-315 -314l330 -831h102l-8 -33h-635l8 33h121l-205 522l-223 -225 q-62 -62 -85.5 -101t-23.5 -75q0 -53 39 -84.5t111 -37.5v-32h-481z" />
<glyph unicode="Y" horiz-adv-x="1104" d="M20 0l11 33h121l135 526l-142 772h-108l8 35h617l-11 -35h-108l133 -715l270 396q45 67 64.5 112.5t19.5 81.5q0 54 -32.5 85.5t-94.5 39.5l8 35h449l-10 -35q-80 0 -156 -62.5t-199 -242.5l-297 -438l-149 -555h133l-14 -33h-648z" />
<glyph unicode="Z" horiz-adv-x="1413" d="M-27 0l930 1331q-9 0 -26.5 1t-26.5 1q-225 0 -389 -99t-260 -294h-35l133 426h1110l-936 -1333h43q255 0 430 93t305 298l33 -4l-133 -420h-1178z" />
<glyph unicode="[" horiz-adv-x="758" d="M-76 -393l488 1759h444l-10 -31h-187l-469 -1697h187l-8 -31h-445z" />
<glyph unicode="\" horiz-adv-x="569" d="M164 1399h67l170 -1589h-65z" />
<glyph unicode="]" horiz-adv-x="758" d="M-205 -393l8 31h187l471 1697h-187l9 31h442l-487 -1759h-443z" />
<glyph unicode="^" horiz-adv-x="2048" d="M412 897l481 565h260l479 -565h-121l-489 348l-490 -348h-120z" />
<glyph unicode="_" d="M0 -244h1024v-239h-1024v239z" />
<glyph unicode="`" d="M338 1321q0 47 29.5 76.5t74.5 29.5q33 0 63 -18t58 -55l248 -318h-121l-274 178q-41 28 -59.5 53.5t-18.5 53.5z" />
<glyph unicode="a" horiz-adv-x="1194" d="M-14 342q0 118 32.5 217.5t98.5 179.5q74 93 163.5 140t192.5 47q107 0 169.5 -49.5t70.5 -139.5l47 164h354l-186 -688q-9 -33 -14 -60t-5 -40q0 -20 10.5 -29.5t30.5 -9.5q23 0 57 33t87 106l24 -16q-78 -116 -157.5 -169t-176.5 -53q-96 0 -151 43.5t-66 126.5 q-45 -86 -111 -128t-159 -42q-145 0 -228 98t-83 269zM297 119q0 -40 21.5 -63t58.5 -23q51 0 95 34t75 99q18 36 36 91t56 192q24 85 34.5 145.5t10.5 112.5q0 69 -28 111t-74 42q-50 0 -85 -46t-63 -148l-115 -424q-11 -43 -16.5 -73t-5.5 -50z" />
<glyph unicode="b" horiz-adv-x="1176" d="M25 319q0 46 11.5 112t33.5 140l221 764h-117l12 29h129q126 0 205 11.5t146 37.5l-181 -600q51 56 115 84.5t137 28.5q137 0 222 -102t85 -269q0 -254 -167 -417t-431 -163q-193 0 -307 94t-114 250zM317 121q0 -51 27.5 -81t73.5 -30q47 0 83 38.5t69 124.5 q8 21 29.5 96.5t55.5 207.5q37 142 51.5 211t14.5 100q0 36 -22 59t-56 23q-51 0 -101 -47t-79 -125q-21 -56 -44 -135t-48 -182q-28 -114 -41 -175.5t-13 -84.5z" />
<glyph unicode="c" horiz-adv-x="963" d="M-27 387q0 108 44 208.5t124 178.5q81 76 181.5 114t222.5 38q163 0 261.5 -63t98.5 -165q0 -67 -46 -112t-114 -45q-65 0 -111 46.5t-46 112.5q0 61 40.5 101.5t114.5 54.5q-23 15 -47 22t-51 7q-63 0 -113 -38t-79 -108q-19 -42 -41.5 -115.5t-53.5 -191.5 q-30 -119 -44.5 -189t-14.5 -100q0 -57 46.5 -93t121.5 -36q99 0 184 49.5t176 159.5l27 -20q-96 -119 -201.5 -173.5t-242.5 -54.5q-201 0 -319 111.5t-118 300.5z" />
<glyph unicode="d" horiz-adv-x="1194" d="M-14 342q0 118 32.5 217.5t98.5 179.5q74 93 163.5 140t192.5 47q107 0 169.5 -49.5t70.5 -139.5l157 598h-116l10 31q36 -1 70 -1.5t67 -0.5q118 0 197.5 11.5t146.5 37.5l-317 -1200q-9 -36 -14 -62t-5 -38q0 -20 10.5 -29.5t30.5 -9.5q23 0 57 33t87 106l24 -16 q-78 -116 -157.5 -169t-176.5 -53q-96 0 -151 43.5t-66 126.5q-45 -86 -111 -128t-159 -42q-145 0 -228 98t-83 269zM297 119q0 -40 21.5 -63t58.5 -23q51 0 95 34t75 99q18 36 36 91t56 192q24 85 34.5 145.5t10.5 112.5q0 69 -28 111t-74 42q-50 0 -85 -46t-63 -148 l-115 -424q-11 -43 -16.5 -73t-5.5 -50z" />
<glyph unicode="e" horiz-adv-x="1028" d="M-29 354q0 106 41.5 205t118.5 176q88 89 211.5 140t253.5 51q152 0 252 -71.5t100 -176.5q0 -130 -103.5 -216.5t-262.5 -86.5q-45 0 -104 2.5t-126 7.5q-23 -71 -34 -123t-11 -94q0 -73 39 -111.5t113 -38.5q77 0 165 42.5t191 129.5l21 -26q-110 -97 -215.5 -143 t-217.5 -46q-208 0 -320 98.5t-112 280.5zM358 420q8 0 20.5 -1t18.5 -1q62 0 98.5 17.5t61.5 58.5q37 59 63.5 150.5t26.5 150.5q0 41 -22.5 67.5t-57.5 26.5q-45 0 -76.5 -45t-62.5 -160z" />
<glyph unicode="f" horiz-adv-x="616" d="M-422 -362q0 55 34.5 92t86.5 37t87.5 -35.5t35.5 -87.5q0 -42 -17.5 -71t-54.5 -46h10q52 0 90.5 44.5t65.5 135.5q15 49 86 437.5t162 725.5h-182l12 31h176q71 246 206 384t304 138q79 0 126.5 -38t47.5 -101q0 -55 -34 -90t-87 -35q-52 0 -86.5 32t-34.5 81 q0 38 20 69t60 56h-14q-71 0 -110.5 -97.5t-75.5 -398.5h196l-10 -31h-191q-42 -378 -139.5 -661t-255.5 -485q-90 -115 -177 -173.5t-167 -58.5q-71 0 -120.5 42.5t-49.5 103.5z" />
<glyph unicode="g" horiz-adv-x="1063" d="M-213 -307q0 69 63 112t191 62q-81 29 -120.5 75.5t-39.5 112.5q0 105 86 188.5t217 100.5q-69 42 -106 104.5t-37 137.5q0 62 41.5 133t107.5 119q61 43 138 65.5t168 22.5q102 0 181 -24t132 -71q29 72 71.5 107t98.5 35q58 0 96.5 -33.5t38.5 -83.5q0 -49 -31.5 -83 t-76.5 -34q-43 0 -72 31.5t-29 77.5q0 23 9.5 42t29.5 38q-33 -2 -58.5 -29t-49.5 -88q45 -44 66.5 -91.5t21.5 -103.5q0 -150 -133 -239.5t-357 -89.5q-66 0 -138.5 15t-78.5 15q-62 0 -106.5 -24.5t-44.5 -54.5q0 -36 35.5 -56t99.5 -20q23 0 133.5 4t197.5 4 q176 0 255 -48t79 -153q0 -66 -39.5 -148t-107.5 -151q-90 -89 -216.5 -133.5t-291.5 -44.5q-197 0 -310.5 54.5t-113.5 146.5zM-63 -295q0 -72 87 -123t220 -51q186 0 322 74t136 164q0 48 -37 66t-182 18h-215q-177 0 -254 -35t-77 -113zM346 410q0 -37 23 -62.5t57 -25.5 q37 0 63 26.5t46 87.5q39 126 64.5 233t25.5 134q0 42 -20.5 67t-53.5 25q-42 0 -69.5 -29.5t-51.5 -101.5q-36 -110 -60 -217.5t-24 -136.5z" />
<glyph unicode="h" horiz-adv-x="1241" d="M-66 0l390 1335h-117l12 31q17 -1 37.5 -1.5t58.5 -0.5q125 0 222.5 13t160.5 38l-247 -837q112 179 221 263.5t227 84.5q96 0 151.5 -53t55.5 -144q0 -38 -11.5 -88.5t-39.5 -130.5l-101 -287q-15 -43 -19.5 -62t-4.5 -34q0 -22 12.5 -34.5t34.5 -12.5q26 0 58.5 29 t90.5 110l25 -14q-81 -118 -159 -169.5t-175 -51.5q-102 0 -159.5 50t-57.5 138q0 34 8.5 73t28.5 95l129 377q5 14 7.5 24.5t2.5 20.5q0 27 -13 42t-38 15q-22 0 -49 -15.5t-55 -45.5q-67 -69 -120.5 -152t-66.5 -129l-139 -477h-361z" />
<glyph unicode="i" horiz-adv-x="653" d="M2 174q0 41 26 135q5 15 7 23l151 538h-116l10 31q20 0 57 -1t53 -1q108 0 199.5 5.5t165.5 17.5l-205 -709q-1 -4 -3 -11q-15 -51 -15 -71q0 -27 12.5 -42t34.5 -15q24 0 58 32.5t87 106.5l25 -16q-80 -118 -158 -170t-176 -52q-103 0 -158 51.5t-55 147.5zM270 1169 q0 72 50 121t122 49q73 0 121.5 -48.5t48.5 -121.5q0 -72 -49 -122t-121 -50t-122 50t-50 122z" />
<glyph unicode="j" horiz-adv-x="621" d="M-518 -313q0 65 43 109t106 44q68 0 110 -40.5t42 -104.5q0 -66 -40 -106.5t-109 -45.5q19 -6 36 -9t31 -3q76 0 123 59.5t88 216.5l276 1063h-116l12 31q20 0 57 -1t54 -1q106 0 196.5 5.5t165.5 16.5l-250 -939q-61 -233 -212 -361.5t-363 -128.5q-108 0 -179 56.5 t-71 138.5zM270 1169q0 72 50 121t122 49q73 0 121.5 -48.5t48.5 -121.5q0 -72 -49 -122t-121 -50t-122 50t-50 122z" />
<glyph unicode="k" horiz-adv-x="1133" d="M-63 0l374 1337h-118l12 29q29 0 72 -1t57 -1q119 0 200 12t150 39l-244 -889h21q96 0 171 167l1 1q66 143 114.5 187.5t118.5 44.5q73 0 119.5 -43.5t46.5 -110.5q0 -68 -41.5 -112t-105.5 -44q-58 0 -100 41t-42 99q0 18 5.5 41t17.5 53q-45 -29 -92 -144l-12 -30 q-29 -69 -53.5 -103.5t-55.5 -52.5q138 -10 195 -44t81 -116q9 -29 13 -102.5t8 -107.5q0 -4 1 -10q6 -54 32 -54q21 0 47.5 33t54.5 94l31 -12q-43 -106 -119.5 -165t-171.5 -59q-111 0 -161 68.5t-50 220.5v88q0 83 -18 109t-66 28l-133 -491h-360z" />
<glyph unicode="l" horiz-adv-x="653" d="M2 174q0 44 28 141q3 11 5 17l289 1003h-117l12 31q17 -1 37.5 -1.5t58.5 -0.5q125 0 222.5 13t160.5 38l-350 -1204q-8 -29 -12 -48t-4 -32q0 -27 12.5 -42t34.5 -15q24 0 58 32.5t87 106.5l25 -16q-80 -118 -158 -170t-176 -52q-103 0 -158 51.5t-55 147.5z" />
<glyph unicode="m" horiz-adv-x="1802" d="M-66 0l259 870h-119l12 31q20 0 57 -1t54 -1q106 0 196.5 5.5t165.5 16.5l-108 -343q106 177 213 262.5t221 85.5q91 0 143.5 -51t52.5 -140q0 -31 -8.5 -70.5t-25.5 -86.5q104 178 206.5 263t212.5 85q91 0 143 -53t52 -144q0 -42 -11 -94t-36 -125l-96 -287 q-13 -38 -18 -61.5t-5 -42.5q0 -15 14 -27t31 -12q25 0 54 28t85 111l25 -14q-71 -114 -151 -171t-171 -57q-87 0 -141.5 54.5t-54.5 140.5q0 32 8 70.5t27 95.5l122 379q5 12 7 24.5t2 26.5q0 23 -13 37t-34 14t-45.5 -15.5t-53.5 -47.5q-62 -70 -112 -150t-64 -129 l-137 -477h-352l217 717q4 14 6 25t2 20q0 27 -13 42t-36 15q-21 0 -45.5 -15.5t-55.5 -47.5q-63 -68 -114.5 -148.5t-65.5 -130.5l-143 -477h-359z" />
<glyph unicode="n" horiz-adv-x="1241" d="M-66 0l259 870h-119l12 31q20 0 57 -1t54 -1q106 0 196.5 5.5t165.5 16.5l-108 -343q112 179 221 263.5t227 84.5q96 0 151.5 -53t55.5 -144q0 -38 -11.5 -88.5t-39.5 -130.5l-101 -287q-15 -43 -19.5 -62t-4.5 -34q0 -22 12.5 -34.5t34.5 -12.5q26 0 58.5 29t90.5 110 l25 -14q-81 -118 -159 -169.5t-175 -51.5q-102 0 -159.5 50t-57.5 138q0 34 8.5 73t28.5 95l129 377q5 14 7.5 24.5t2.5 20.5q0 27 -13 42t-38 15q-22 0 -49 -15.5t-55 -45.5q-67 -69 -120.5 -152t-66.5 -129l-139 -477h-361z" />
<glyph unicode="o" horiz-adv-x="1139" d="M-20 379q0 237 164 392t417 155q220 0 341.5 -108.5t121.5 -303.5q0 -238 -167 -388.5t-435 -150.5q-201 0 -321.5 110.5t-120.5 293.5zM293 117q0 -52 29.5 -80.5t83.5 -28.5q57 0 98.5 56t75.5 180l108 393q13 46 20 83t7 60q0 53 -28.5 82t-80.5 29q-62 0 -102.5 -50 t-73.5 -169l-115 -426q-11 -39 -16.5 -72t-5.5 -57z" />
<glyph unicode="p" horiz-adv-x="1241" d="M-303 -494l10 29h115l371 1335h-119l12 31q20 0 57 -1t54 -1q106 0 196.5 5.5t165.5 16.5l-67 -212q81 112 160.5 164.5t166.5 52.5q140 0 220.5 -94t80.5 -257q0 -117 -40.5 -225.5t-116.5 -193.5q-79 -88 -168.5 -131t-192.5 -43q-98 0 -156.5 39t-95.5 129l-166 -615 h119l-12 -29h-594zM377 209q0 -68 39 -117t92 -49q52 0 92 55.5t78 182.5q52 173 84.5 313t32.5 184q0 40 -18 60t-54 20q-39 0 -90.5 -37t-93.5 -98q-27 -37 -48 -80t-38 -98q-39 -117 -57.5 -199t-18.5 -137z" />
<glyph unicode="q" horiz-adv-x="1200" d="M-14 342q0 118 32.5 217.5t98.5 179.5q74 93 163.5 140t192.5 47q107 0 169.5 -49.5t70.5 -139.5l47 164h354l-356 -1366h116l-10 -29h-594l11 29h114l172 610q-45 -86 -111 -128t-159 -42q-145 0 -228 98t-83 269zM297 119q0 -40 21.5 -63t58.5 -23q51 0 95 34t75 99 q18 36 36 91t56 192q24 85 34.5 145.5t10.5 112.5q0 69 -28 111t-74 42q-50 0 -85 -46t-63 -148l-115 -424q-11 -43 -16.5 -73t-5.5 -50z" />
<glyph unicode="r" horiz-adv-x="934" d="M-66 0l259 870h-119l12 31q20 0 57 -1t54 -1q106 0 196.5 5.5t165.5 16.5l-63 -214q59 110 122.5 164.5t133.5 54.5q72 0 119 -46.5t47 -117.5q0 -75 -49.5 -125.5t-123.5 -50.5q-71 0 -115 43t-44 112q0 16 2 30t6 28q-59 -68 -104 -166t-97 -281l-100 -352h-359z" />
<glyph unicode="s" horiz-adv-x="868" d="M-57 205q0 60 36 99.5t91 39.5q53 0 89 -37.5t36 -93.5q0 -54 -36.5 -89.5t-92.5 -35.5q-10 0 -21.5 1.5t-23.5 4.5q51 -40 109.5 -61t117.5 -21q79 0 130.5 34t51.5 85q0 54 -109 151l-27 24q-126 114 -169 181t-43 134q0 134 119.5 219.5t312.5 85.5q141 0 226 -57.5 t85 -149.5q0 -51 -36 -86t-89 -35q-55 0 -91 34t-36 87q0 55 39 88t105 33h6q-31 23 -68.5 34t-85.5 11q-74 0 -125 -43.5t-51 -104.5q0 -76 156 -197l61 -48q63 -51 94 -107.5t31 -118.5q0 -132 -117 -211.5t-317 -79.5q-161 0 -259.5 64t-98.5 166z" />
<glyph unicode="t" horiz-adv-x="627" d="M-14 154q0 32 4 62.5t12 59.5l164 594h-148l11 31h143l61 207q107 33 205 74t191 92l-107 -373h131l-8 -31h-129l-180 -657q-6 -23 -9 -45.5t-3 -42.5q0 -15 12 -30t26 -15q27 0 61 33t75 98l24 -16q-62 -109 -146 -165.5t-183 -56.5q-98 0 -152.5 47.5t-54.5 133.5z" />
<glyph unicode="u" horiz-adv-x="1214" d="M2 174q0 28 7 62.5t26 95.5l158 538h-119l12 31q20 0 57 -1t54 -1q106 0 196.5 5.5t165.5 16.5l-219 -757q-3 -9 -4.5 -18t-1.5 -17q0 -25 12.5 -39t34.5 -14q16 0 50 22.5t71 59.5q47 47 82 99.5t45 88.5l151 555h346l-182 -688q-7 -26 -10.5 -47t-3.5 -37 q0 -30 11.5 -43.5t35.5 -13.5q21 0 54.5 34t86.5 107l25 -16q-80 -119 -159 -170.5t-179 -51.5q-105 0 -159 45t-54 132q0 22 1 34t3 20q-104 -119 -195.5 -175t-183.5 -56q-104 0 -159.5 51t-55.5 148z" />
<glyph unicode="v" horiz-adv-x="1133" d="M8 176q0 34 12.5 92.5t36.5 139.5l136 462h-119l12 31q20 0 57 -1t54 -1q106 0 196.5 5.5t165.5 16.5l-197 -702q0 -3 -2 -10q-12 -43 -12 -57q0 -43 24.5 -63.5t76.5 -20.5q59 0 131.5 39.5t173.5 128.5q76 68 122 144t46 132q0 32 -12 51t-59 46q-4 2 -17 9 q-111 61 -111 140q0 71 47 118.5t119 47.5q82 0 128 -53.5t46 -149.5q0 -106 -62.5 -229.5t-175.5 -235.5q-131 -133 -281.5 -207t-287.5 -74q-121 0 -184.5 51.5t-63.5 149.5z" />
<glyph unicode="w" horiz-adv-x="1726" d="M2 176q0 41 26 135q5 16 7 23l151 536h-116l10 31q20 0 57 -1t53 -1q108 0 199.5 5.5t165.5 17.5l-186 -651l-3 -10q-26 -91 -26 -120q0 -33 21 -54t55 -21q59 0 120.5 48.5t102.5 129.5l178 657h357l-183 -678q-6 -23 -9 -40t-3 -27q0 -42 21.5 -62t66.5 -20 q57 0 126.5 40t160.5 124q71 67 113 144.5t42 137.5q0 50 -61 87l-2 1q-3 2 -10 6q-109 64 -109 146q0 69 44.5 117.5t109.5 48.5q75 0 118 -55t43 -150q0 -105 -58.5 -228.5t-162.5 -234.5q-128 -137 -267.5 -206.5t-285.5 -69.5q-111 0 -169 45t-66 138 q-72 -93 -169.5 -141.5t-213.5 -48.5q-127 0 -187.5 49.5t-60.5 151.5z" />
<glyph unicode="x" horiz-adv-x="1323" d="M-39 121q0 70 42.5 114t109.5 44q61 0 102 -39.5t41 -98.5q0 -24 -8.5 -50t-24.5 -52q58 28 101.5 87t74.5 153q54 160 78.5 264t24.5 170q0 60 -27 93.5t-76 33.5q-52 0 -116.5 -43t-141.5 -129l-20 22q93 117 202 176.5t230 59.5q109 0 184.5 -50.5t102.5 -142.5 q60 98 124 145.5t134 47.5t113.5 -41t43.5 -107q0 -70 -40 -113.5t-105 -43.5t-107 41.5t-42 105.5q0 19 7 39t21 43q-47 -32 -84 -86t-63 -129q-52 -147 -81.5 -266.5t-29.5 -178.5q0 -54 32 -86t85 -32q47 0 105.5 37t131.5 114l23 -24q-107 -112 -212 -167t-212 -55 q-106 0 -177.5 55.5t-98.5 160.5q-52 -103 -127 -159.5t-158 -56.5q-70 0 -116 41t-46 103z" />
<glyph unicode="y" horiz-adv-x="1208" d="M-51 -346q0 73 42.5 118.5t110.5 45.5q63 0 104.5 -46t41.5 -116q0 -34 -13 -63.5t-38 -55.5q75 10 143.5 73t118.5 169l-240 870q-17 59 -27.5 72.5t-27.5 13.5q-28 0 -61.5 -42t-69.5 -124l-29 17q72 159 169.5 247.5t201.5 88.5q72 0 116.5 -53.5t77.5 -184.5 l103 -401q34 94 85 252q128 391 257 391q72 0 118 -46t46 -118q0 -71 -44.5 -116.5t-113.5 -45.5q-54 0 -90.5 29t-63.5 94q-27 -71 -116.5 -323.5t-157.5 -415.5q-119 -282 -218 -386t-235 -104q-89 0 -139.5 42.5t-50.5 117.5z" />
<glyph unicode="z" horiz-adv-x="1133" d="M-76 23q0 39 96.5 135t253.5 209q128 90 309.5 199t215.5 145q-148 -61 -269.5 -89t-232.5 -28q-30 0 -71.5 3t-116.5 11l-35 -121l-35 5l135 430q205 -45 379.5 -69t300.5 -24q57 0 86 18t68 75l26 -13q-46 -76 -122 -148t-183 -143l-202 -126q-257 -157 -350 -244 l45 16q182 64 263 64q93 0 214.5 -49.5t154.5 -49.5q41 0 67.5 23.5t26.5 58.5q0 2 -1 7.5t-1 7.5q-19 -15 -36 -22t-31 -7q-44 0 -72.5 27.5t-28.5 68.5q0 39 25 65.5t61 26.5q53 0 88 -41t35 -106q0 -151 -116.5 -259t-284.5 -108q-114 0 -324 79q-1 1 -2 1l-26 10 q-110 41 -158 41q-37 0 -58.5 -10t-21.5 -26v-15q0 -35 -8.5 -49t-28.5 -14q-15 0 -25 10t-10 25z" />
<glyph unicode="{" d="M178 596v80q153 14 207.5 76.5t54.5 230.5v186q0 199 85.5 273t314.5 74h12v-66q-111 -3 -152 -54t-41 -208v-131q0 -227 -50.5 -308.5t-184.5 -113.5q134 -33 184.5 -113.5t50.5 -306.5v-131q0 -158 41 -209.5t152 -55.5v-63h-12q-229 0 -314.5 74t-85.5 272v187 q0 168 -54.5 230t-207.5 77z" />
<glyph unicode="|" d="M393 -483v2048h240v-2048h-240z" />
<glyph unicode="}" d="M172 -181q111 4 152 55.5t41 209.5v131q0 226 50.5 306.5t184.5 113.5q-134 34 -184.5 115t-50.5 307v131q0 157 -41 208t-152 54v66h12q229 0 314.5 -74t85.5 -273v-186q0 -168 54.5 -230.5t207.5 -76.5v-80q-153 -15 -207.5 -77t-54.5 -230v-187q0 -198 -85.5 -272 t-314.5 -74h-12v63z" />
<glyph unicode="~" horiz-adv-x="1706" d="M178 401v254q112 73 207.5 108.5t179.5 35.5q63 0 126.5 -12t169.5 -46q16 -5 51 -17q159 -56 247 -56q84 0 173.5 36t197.5 115v-254q-101 -69 -194 -103t-183 -34q-45 0 -89 7.5t-83 21.5q-13 4 -38 13q-255 89 -382 89q-84 0 -175.5 -37.5t-207.5 -120.5z" />
<glyph unicode="&#xa1;" horiz-adv-x="692" d="M2 221q155 194 254.5 367.5t140.5 322.5l33 -10q-24 -77 -36.5 -181.5t-12.5 -227.5q0 -75 7 -146.5t22 -140.5q-72 -40 -138 -96.5t-131 -133.5q-22 60 -57 121.5t-82 124.5zM311 1225q0 74 49.5 124t122.5 50q74 0 124 -50.5t50 -123.5t-50 -122.5t-124 -49.5 q-73 0 -122.5 49.5t-49.5 122.5z" />
<glyph unicode="&#xa2;" horiz-adv-x="1028" d="M14 397q0 222 167 374.5t417 152.5h43l41 151h35l-41 -155q145 -17 221 -73.5t76 -148.5q0 -68 -42.5 -111.5t-109.5 -43.5q-66 0 -109.5 44t-43.5 111q0 59 39 100.5t106 53.5q-33 16 -64 23.5t-63 7.5h-20l-232 -858q27 -6 50 -9.5t40 -3.5q85 0 169.5 51.5 t174.5 157.5l27 -20q-91 -116 -195.5 -172t-228.5 -56q-21 0 -31.5 0.5t-19.5 1.5l-49 -184h-35l49 184q-179 23 -275 132.5t-96 289.5zM340 147q0 -34 16 -61.5t47 -46.5l226 838q-57 -20 -95 -69t-71 -153q-55 -165 -89 -315t-34 -193z" />
<glyph unicode="&#xa3;" horiz-adv-x="1118" d="M-88 152q0 83 66.5 138.5t168.5 55.5q28 0 63.5 -6t82.5 -18q1 16 1.5 34.5t0.5 55.5q0 57 -3.5 107t-10.5 95h-234l10 35h219q-11 99 -16.5 164.5t-5.5 108.5q0 205 126.5 327.5t340.5 122.5q183 0 304.5 -89t121.5 -218q0 -76 -41 -125t-105 -49q-62 0 -104.5 40 t-42.5 99q0 58 34.5 95.5t88.5 37.5q25 0 49.5 -9.5t48.5 -29.5q-11 86 -72.5 135.5t-158.5 49.5t-150 -49.5t-78 -163.5q-2 -12 -13 -160t-32 -287h265l-11 -35h-258q-18 -95 -51.5 -177.5t-85.5 -162.5q77 -26 152 -39.5t147 -13.5q111 0 184.5 51t100.5 146l35 -6 q-48 -230 -141.5 -335.5t-248.5 -105.5q-86 0 -169.5 38t-165.5 114q-65 -67 -127.5 -99t-126.5 -32q-72 0 -115 44t-43 116zM-45 141q0 -49 31.5 -80.5t81.5 -31.5q54 0 105.5 41t84.5 112q-67 44 -104.5 59t-71.5 15q-57 0 -92 -32t-35 -83z" />
<glyph unicode="&#xa4;" horiz-adv-x="1241" d="M61 444l201 203q-36 54 -54 113t-18 125q0 67 18.5 126.5t53.5 110.5l-201 205l117 117l203 -201q54 37 113.5 55.5t126.5 18.5q69 0 130 -18.5t113 -55.5l201 201l119 -117l-201 -205q35 -53 52.5 -112t17.5 -125t-17.5 -125.5t-52.5 -112.5l201 -203l-119 -118 l-201 202q-52 -37 -111.5 -55t-129.5 -18t-128.5 17.5t-113.5 55.5l-203 -202zM362 885q0 -108 76 -183t185 -75q107 0 182.5 75t75.5 183q0 107 -76 183.5t-182 76.5q-107 0 -184 -77t-77 -183z" />
<glyph unicode="&#xa5;" horiz-adv-x="1194" d="M14 555l19 68h342l-37 196h-252l18 68h222l-76 422h-109l9 32h555l-11 -32h-106l131 -703l264 389q45 66 64.5 110t19.5 79q0 53 -32 85t-93 40l8 32h441l-9 -32h-4q-79 0 -160 -70t-186 -229l-80 -123h244l-18 -68h-271l-135 -196h354l-18 -68h-377l-137 -522h131 l-14 -33h-586l10 33h119l135 522h-375z" />
<glyph unicode="&#xa6;" d="M393 -350v758h240v-758h-240zM393 674v758h240v-758h-240z" />
<glyph unicode="&#xa7;" horiz-adv-x="1229" d="M-33 -172q0 69 41 109t111 40q65 0 106 -42t41 -107q0 -62 -37 -95t-118 -44q31 -47 94.5 -72t152.5 -25q105 0 168.5 47t63.5 123q0 90 -149 228q-12 12 -19 18l-53 49q-310 287 -310 445q0 105 69 199t212 184q-20 49 -29.5 90.5t-9.5 77.5q0 152 125 249t322 97 q156 0 253 -74.5t97 -191.5q0 -73 -41 -117.5t-107 -44.5q-64 0 -101.5 37.5t-37.5 101.5q0 58 33.5 91.5t91.5 33.5q7 0 19.5 -1.5t31.5 -4.5v6q0 53 -50 88t-128 35q-93 0 -149 -48t-56 -126q0 -103 198 -291q9 -8 13 -12l43 -40q211 -198 211 -331t-67 -232.5 t-195 -158.5q22 -45 33.5 -89.5t11.5 -88.5q0 -168 -135 -277.5t-346 -109.5q-178 0 -291 77t-113 197zM262 729q0 -81 273 -338l247 -239q43 20 64.5 47.5t21.5 62.5q0 74 -231 299q-177 172 -285 291q-46 -29 -68 -59t-22 -64z" />
<glyph unicode="&#xa8;" d="M305 1223q0 56 43 97.5t101 41.5q59 0 100 -40.5t41 -98.5q0 -63 -40 -103.5t-101 -40.5t-102.5 41.5t-41.5 102.5zM688 1223q0 56 43 97.5t100 41.5q60 0 101 -40.5t41 -98.5q0 -63 -40 -103.5t-102 -40.5q-60 0 -101.5 41.5t-41.5 102.5z" />
<glyph unicode="&#xa9;" horiz-adv-x="1683" d="M98 678q0 149 55.5 283t161.5 241q105 106 242.5 163.5t286.5 57.5q144 0 280.5 -56.5t241.5 -160.5q104 -104 161.5 -242.5t57.5 -285.5q0 -146 -56.5 -281.5t-162.5 -242.5q-105 -106 -240 -161.5t-284 -55.5t-283 55.5t-242 161.5q-106 104 -162.5 239t-56.5 285z M213 678q0 -130 47 -244t137 -203q93 -91 205.5 -137.5t239.5 -46.5t240.5 47.5t201.5 136.5q89 91 137.5 207.5t48.5 239.5q0 126 -48.5 244.5t-135.5 203.5q-89 88 -205 136.5t-237 48.5q-126 0 -242.5 -49t-204.5 -138q-89 -91 -136.5 -206t-47.5 -240zM403 664 q0 194 122.5 319t312.5 125q82 0 157.5 -33t79.5 -33q22 0 33.5 13.5t19.5 48.5h50v-330h-52q-29 130 -98 201.5t-164 71.5q-112 0 -167.5 -91t-55.5 -272q0 -182 61 -278.5t177 -96.5q76 0 143.5 44.5t124.5 131.5l51 -32q-64 -108 -152 -162.5t-198 -54.5 q-192 0 -318.5 122t-126.5 306z" />
<glyph unicode="&#xaa;" horiz-adv-x="895" d="M-10 958q0 82 24.5 152.5t73.5 126.5q56 64 123 96.5t143 32.5q81 0 127.5 -34t53.5 -97l34 115h267l-140 -482q-6 -20 -10 -39.5t-4 -29.5q0 -15 7.5 -22t23.5 -7q18 0 44 24t64 74l19 -12q-59 -80 -119 -117t-133 -37q-72 0 -113 30.5t-49 88.5q-34 -61 -83.5 -90 t-119.5 -29q-109 0 -171 68.5t-62 187.5zM223 803q0 -29 16 -45.5t44 -16.5q38 0 71.5 24.5t55.5 70.5q13 25 27 64t42 132q20 64 27.5 105.5t7.5 76.5q0 48 -21.5 77.5t-56.5 29.5q-37 0 -63 -32t-47 -103l-86 -297q-9 -33 -13 -53.5t-4 -32.5z" />
<glyph unicode="&#xab;" horiz-adv-x="1014" d="M74 455l171 136l189 165l23 -23q-33 -70 -84 -142t-119 -142q28 -75 47 -147.5t31 -143.5l-31 -15q-29 51 -81 122.5t-146 189.5zM416 455q77 58 163 130l195 171l23 -23q-34 -73 -84.5 -144.5t-116.5 -139.5q26 -70 44.5 -142t31.5 -149l-29 -15q-29 51 -81 122.5 t-146 189.5z" />
<glyph unicode="&#xac;" horiz-adv-x="1706" d="M254 639v227h1198v-501h-229v274h-969z" />
<glyph unicode="&#xad;" horiz-adv-x="920" d="M96 336l56 227h591l-55 -227h-592z" />
<glyph unicode="&#xae;" horiz-adv-x="1683" d="M98 678q0 149 56 284t161 240q105 106 242.5 163.5t286.5 57.5q150 0 291 -60t245 -169q99 -102 152 -240t53 -292q0 -141 -63 -280.5t-176 -246.5q-102 -97 -232 -149t-272 -52q-109 0 -212.5 31.5t-197.5 91.5q-159 107 -246.5 269.5t-87.5 351.5zM213 678 q0 -130 47 -244t137 -203q93 -91 205.5 -137.5t239.5 -46.5t240.5 47.5t201.5 136.5q89 91 137.5 207.5t48.5 239.5q0 125 -49 243.5t-137 204.5q-89 88 -204 136.5t-236 48.5q-127 0 -244.5 -49t-204.5 -138q-88 -90 -135 -204.5t-47 -241.5zM463 281v57q57 5 77.5 24 t20.5 66v524q0 47 -19 65.5t-79 26.5v56h405q147 0 236.5 -56t89.5 -145q0 -87 -64.5 -136.5t-211.5 -74.5q116 -23 172.5 -87.5t56.5 -172.5q0 -48 10 -68t33 -20q25 0 39 31t14 88v12h55q0 -5 1 -15t1 -14q0 -90 -47 -135t-141 -45q-45 0 -80 13t-55 36q-32 37 -36 134 q-2 43 -5 65q-13 87 -47.5 124.5t-100.5 37.5h-16v-244q0 -45 18 -63.5t70 -26.5v-57h-397zM772 728q8 -2 16 -2.5t23 -0.5q85 0 127.5 43.5t42.5 130.5q0 62 -38.5 103.5t-98.5 41.5q-37 0 -54.5 -15.5t-17.5 -47.5v-253z" />
<glyph unicode="&#xaf;" d="M313 1137l37 168h613l-35 -168h-615z" />
<glyph unicode="&#xb0;" horiz-adv-x="674" d="M27 1155q0 131 90.5 221t220.5 90q129 0 220 -91t91 -220q0 -128 -91.5 -219.5t-221.5 -91.5q-129 0 -219 90.5t-90 220.5zM172 1157q0 -70 48 -118t118 -48q68 0 116 49t48 117t-48 116t-116 48q-69 0 -117.5 -48t-48.5 -116z" />
<glyph unicode="&#xb1;" horiz-adv-x="1706" d="M254 -18v231h1198v-231h-1198zM254 690v232h481v319h238v-319h479v-232h-479v-319h-238v319h-481z" />
<glyph unicode="&#xb2;" horiz-adv-x="737" d="M-68 537q39 123 294 296l48 33q86 61 137.5 151t51.5 179q0 61 -39 95t-109 34q-64 0 -107 -24.5t-64 -73.5q17 9 32 13.5t31 4.5q38 0 64 -23.5t26 -58.5q0 -38 -27.5 -63t-68.5 -25q-42 0 -67 28t-25 73q0 81 75 130.5t201 49.5q140 0 220.5 -56t80.5 -153 q0 -93 -52.5 -160.5t-162.5 -116.5q-57 -26 -193.5 -71.5t-185.5 -89.5q54 4 106.5 6t100.5 2h215q48 0 68 16t36 68l23 -4l-98 -260h-611z" />
<glyph unicode="&#xb3;" horiz-adv-x="737" d="M-8 676q0 41 29 69.5t69 28.5q41 0 68.5 -25t27.5 -63q0 -39 -26.5 -65.5t-65.5 -26.5q-6 0 -21 2q-7 1 -12 2q27 -25 59 -38t68 -13q48 0 85 21t63 63q8 11 17.5 32t23.5 62q20 60 28.5 98t8.5 66q0 30 -33.5 49.5t-85.5 19.5q-6 0 -18.5 -1t-18.5 -1l6 21h15 q62 0 99.5 9.5t57.5 29.5q25 25 44.5 82t19.5 114q0 55 -34 87t-91 32q-33 0 -62.5 -10t-52.5 -29h4q47 0 76 -21t29 -54q0 -43 -27.5 -71t-69.5 -28q-39 0 -65.5 24.5t-26.5 61.5q0 64 70.5 108t177.5 44q126 0 207.5 -55.5t81.5 -139.5q0 -90 -62.5 -143.5t-176.5 -63.5 q68 -16 108.5 -65t40.5 -115q0 -119 -98.5 -188.5t-272.5 -69.5q-117 0 -190.5 45t-73.5 115z" />
<glyph unicode="&#xb4;" d="M408 1036l309 320q36 37 67.5 54t65.5 17q39 0 69.5 -32t30.5 -74q0 -32 -20.5 -59.5t-61.5 -49.5l-340 -176h-120z" />
<glyph unicode="&#xb5;" horiz-adv-x="1233" d="M-98 -303q0 56 69 281t105 397l108 510h293l-106 -498q-10 -43 -15.5 -75t-5.5 -50q0 -54 28 -86.5t75 -32.5q62 0 104 55t68 171l110 516h291l-111 -525q-6 -26 -9 -49t-3 -43q0 -43 19.5 -67.5t54.5 -24.5q26 0 49.5 13.5t40.5 37.5q10 14 25 42q35 63 65 63 q11 0 20 -12t9 -27q0 -30 -21 -87t-53 -104q-41 -62 -95.5 -92t-125.5 -30q-90 0 -136.5 47.5t-54.5 146.5q-36 -97 -98.5 -145.5t-150.5 -48.5q-101 0 -161 54.5t-71 155.5q-12 -89 -27 -239q-40 -377 -163 -377q-57 0 -92 34.5t-35 88.5z" />
<glyph unicode="&#xb6;" d="M29 1130q0 158 106 253.5t283 95.5h579v-123h-106v-1356h-176v1356h-150v-1356h-174v784q-164 6 -263 101t-99 245z" />
<glyph unicode="&#xb7;" horiz-adv-x="559" d="M92 655q0 78 52.5 131.5t129.5 53.5q78 0 131.5 -53.5t53.5 -131.5q0 -77 -53.5 -129.5t-131.5 -52.5q-77 0 -129.5 52.5t-52.5 129.5z" />
<glyph unicode="&#xb8;" d="M31 -373l20 45q69 -28 108.5 -39.5t67.5 -11.5q51 0 79 26t28 72q0 51 -20 75t-62 24q-6 0 -15 -1l-26 -3l61 186h41l-48 -139q21 3 41 4.5t38 1.5q93 0 146 -40.5t53 -111.5q0 -67 -64.5 -109t-169.5 -42q-56 0 -124.5 15.5t-153.5 47.5z" />
<glyph unicode="&#xb9;" horiz-adv-x="739" d="M18 537l7 20h114l207 676l-180 -55l-6 18l469 160l-240 -799h148l-5 -20h-514z" />
<glyph unicode="&#xba;" horiz-adv-x="854" d="M-16 985q0 165 123.5 273t314.5 108q164 0 255 -75t91 -212q0 -167 -125 -272t-326 -105q-151 0 -242 77.5t-91 205.5zM219 801q0 -36 22.5 -56t63.5 -20q43 0 74 39t55 125l82 276q10 31 15.5 57.5t5.5 43.5q0 36 -22 56.5t-60 20.5q-46 0 -76.5 -34.5t-54.5 -118.5 l-86 -299q-10 -32 -14.5 -53.5t-4.5 -36.5z" />
<glyph unicode="&#xbb;" horiz-adv-x="1014" d="M39 166q33 70 84 142t119 143q-28 74 -47.5 146.5t-30.5 143.5l31 15q29 -50 81 -121.5t146 -190.5l-171 -136l-190 -165zM381 166q33 70 84 142t119 143q-28 74 -47.5 146.5t-30.5 143.5l31 15q31 -54 85 -129t140 -183l-164 -130l-195 -171z" />
<glyph unicode="&#xbc;" horiz-adv-x="1751" d="M16 590l7 18h110l197 631l-172 -51l-6 18l446 150l-227 -748h141l-4 -18h-492zM362 -25l945 1385h79l-944 -1385h-80zM1004 199l591 553h140l-146 -469h123l-26 -84h-121l-58 -183h109l-4 -16h-420l6 16h96l56 183h-346zM1124 283h252l103 331z" />
<glyph unicode="&#xbd;" horiz-adv-x="1751" d="M16 590l7 18h110l197 631l-172 -51l-6 18l446 150l-227 -748h141l-4 -18h-492zM362 -25l945 1385h79l-944 -1385h-80zM983 0q37 114 278 277l47 32q82 56 130.5 138.5t48.5 166.5q0 59 -36.5 91t-102.5 32q-60 0 -101 -23t-63 -69q16 8 31 12.5t28 4.5q37 0 61.5 -22 t24.5 -54q0 -36 -26.5 -60t-65.5 -24t-63.5 26.5t-24.5 67.5q0 77 72.5 123.5t193.5 46.5q134 0 210.5 -53t76.5 -144q0 -86 -50 -149t-155 -109q-54 -24 -185 -66.5t-177 -84.5q51 4 100.5 6t95.5 2h207q46 0 65 15t35 63l21 -2l-94 -244h-582z" />
<glyph unicode="&#xbe;" horiz-adv-x="1751" d="M-8 719q0 38 28 66t66 28q39 0 65.5 -24.5t26.5 -59.5q0 -37 -25.5 -61.5t-64.5 -24.5q-4 0 -21 3q-6 1 -8 1q26 -24 56.5 -36.5t64.5 -12.5q46 0 80.5 19.5t60.5 59.5q8 11 17 32t22 57q19 57 27 92t8 60q0 28 -32 46.5t-82 18.5q-14 0 -21.5 -0.5t-13.5 -1.5l6 20h14 q58 0 94 8.5t56 26.5q23 22 41 76t18 109q0 51 -31 80.5t-86 29.5q-30 0 -59 -9.5t-51 -27.5h4q45 0 72.5 -19t27.5 -50q0 -40 -26.5 -66t-65.5 -26q-38 0 -63 23t-25 58q0 59 68 100.5t170 41.5q119 0 197.5 -52.5t78.5 -132.5q0 -82 -61 -132.5t-170 -59.5 q66 -15 104.5 -60t38.5 -106q0 -112 -94 -177t-258 -65q-114 0 -184 41t-70 107zM362 -25l945 1385h79l-944 -1385h-80zM1004 199l591 553h140l-146 -469h123l-26 -84h-121l-58 -183h109l-4 -16h-420l6 16h96l56 183h-346zM1124 283h252l103 331z" />
<glyph unicode="&#xbf;" d="M78 328q0 147 83 241.5t331 200.5l28 12q145 61 172 144l35 -4l-70 -265q-20 -79 -47.5 -118t-81.5 -72l-32 -20q-199 -120 -199 -244q0 -85 59.5 -140t151.5 -55q46 0 77 15t31 34q0 5 -30.5 15t-48.5 24q-24 19 -38 50t-14 67q0 65 44.5 107t113.5 42q70 0 114 -43.5 t44 -111.5q0 -100 -90 -166t-232 -66q-176 0 -288.5 99.5t-112.5 253.5zM580 1214q0 78 53 131.5t131 53.5q77 0 129.5 -53.5t52.5 -131.5q0 -77 -52.5 -130.5t-129.5 -53.5q-78 0 -131 53.5t-53 130.5z" />
<glyph unicode="&#xc0;" horiz-adv-x="1128" d="M-289 0l9 33q89 5 159 60.5t158 199.5l653 1073h139l140 -1333h118v-33h-626l10 33h113l-31 354h-422l-65 -111q-16 -27 -26.5 -61t-10.5 -57q0 -60 37 -91t112 -35l-8 -32h-459zM152 422h397l-53 567zM500 1794q0 47 29.5 76.5t74.5 29.5q33 0 63 -18t58 -55l248 -318 h-121l-274 178q-41 28 -59.5 53.5t-18.5 53.5z" />
<glyph unicode="&#xc1;" horiz-adv-x="1128" d="M-289 0l9 33q89 5 159 60.5t158 199.5l653 1073h139l140 -1333h118v-33h-626l10 33h113l-31 354h-422l-65 -111q-16 -27 -26.5 -61t-10.5 -57q0 -60 37 -91t112 -35l-8 -32h-459zM152 422h397l-53 567zM570 1509l309 320q36 37 67.5 54t65.5 17q39 0 69.5 -32t30.5 -74 q0 -32 -20.5 -59.5t-61.5 -49.5l-340 -176h-120z" />
<glyph unicode="&#xc2;" horiz-adv-x="1128" d="M-289 0l9 33q89 5 159 60.5t158 199.5l653 1073h139l140 -1333h118v-33h-626l10 33h113l-31 354h-422l-65 -111q-16 -27 -26.5 -61t-10.5 -57q0 -60 37 -91t112 -35l-8 -32h-459zM152 422h397l-53 567zM426 1509l311 371h173l159 -371h-96l-174 172l-258 -172h-115z" />
<glyph unicode="&#xc3;" horiz-adv-x="1128" d="M-289 0l9 33q89 5 159 60.5t158 199.5l653 1073h139l140 -1333h118v-33h-626l10 33h113l-31 354h-422l-65 -111q-16 -27 -26.5 -61t-10.5 -57q0 -60 37 -91t112 -35l-8 -32h-459zM152 422h397l-53 567zM469 1538q36 140 86 203t125 63q19 0 42 -3t48 -9l124 -29 q12 -3 24.5 -4.5t23.5 -1.5q44 0 71.5 21.5t45.5 68.5h72q-30 -136 -81.5 -198t-133.5 -62q-18 0 -34.5 2t-31.5 6l-109 25q-5 1 -14 3q-49 11 -63 11q-43 0 -71.5 -23t-47.5 -73h-76z" />
<glyph unicode="&#xc4;" horiz-adv-x="1128" d="M-289 0l9 33q89 5 159 60.5t158 199.5l653 1073h139l140 -1333h118v-33h-626l10 33h113l-31 354h-422l-65 -111q-16 -27 -26.5 -61t-10.5 -57q0 -60 37 -91t112 -35l-8 -32h-459zM152 422h397l-53 567zM467 1696q0 56 43 97.5t101 41.5q59 0 100 -40.5t41 -98.5 q0 -63 -40 -103.5t-101 -40.5t-102.5 41.5t-41.5 102.5zM850 1696q0 56 43 97.5t100 41.5q60 0 101 -40.5t41 -98.5q0 -63 -40 -103.5t-102 -40.5q-60 0 -101.5 41.5t-41.5 102.5z" />
<glyph unicode="&#xc5;" horiz-adv-x="1128" d="M-289 0l9 33q89 5 159 60.5t158 199.5l653 1073h139l140 -1333h118v-33h-626l10 33h113l-31 354h-422l-65 -111q-16 -27 -26.5 -61t-10.5 -57q0 -60 37 -91t112 -35l-8 -32h-459zM152 422h397l-53 567zM518 1698q0 111 77.5 188.5t188.5 77.5q112 0 189.5 -77.5 t77.5 -188.5q0 -112 -77 -189t-190 -77q-112 0 -189 77t-77 189zM633 1696q0 -65 43 -108.5t108 -43.5t108.5 43.5t43.5 108.5t-43.5 109t-108.5 44q-64 0 -107.5 -43.5t-43.5 -109.5z" />
<glyph unicode="&#xc6;" horiz-adv-x="1907" d="M-324 0l9 33q83 6 165.5 60.5t155.5 152.5l811 1085h-69l10 35h1153l-111 -436h-32q0 9 0.5 20.5t0.5 32.5q0 177 -98 263.5t-299 86.5q-29 0 -44.5 -0.5t-28.5 -1.5l-166 -602q12 -1 27 -1.5t44 -0.5q149 0 235.5 49t131.5 158h35l-136 -506l-30 6v6q4 39 4 56 q0 106 -59 152t-195 46q-28 0 -42.5 -0.5t-27.5 -1.5l-165 -659q11 -1 25 -1.5t42 -0.5q235 0 397.5 94.5t268.5 292.5h34l-123 -418h-1173l10 33h113l96 354h-477l-98 -125q-36 -44 -52 -74t-16 -53q0 -47 36.5 -73.5t104.5 -29.5l-8 -32h-459zM186 422h467l246 909h-31z " />
<glyph unicode="&#xc7;" horiz-adv-x="1352" d="M47 551q0 182 74 346t213 289q116 104 254.5 158.5t285.5 54.5q132 0 276 -52.5t163 -52.5q27 0 53 13.5t51 40.5l29 -9l-131 -473l-35 1q1 12 1.5 26.5t0.5 42.5q0 193 -88.5 302.5t-245.5 109.5q-116 0 -190 -65t-137 -226q-37 -91 -72.5 -206.5t-71.5 -258.5 q-31 -130 -44 -207t-13 -131q0 -111 70.5 -175.5t191.5 -64.5q127 0 246.5 68.5t222.5 200.5l27 -27q-106 -144 -240 -216.5t-295 -72.5q-281 0 -438.5 154.5t-157.5 429.5zM256 -373l20 45q69 -28 108.5 -39.5t67.5 -11.5q51 0 79 26t28 72q0 51 -20 75t-62 24q-6 0 -15 -1 l-26 -3l61 186h41l-48 -139q21 3 41 4.5t38 1.5q93 0 146 -40.5t53 -111.5q0 -67 -64.5 -109t-169.5 -42q-56 0 -124.5 15.5t-153.5 47.5z" />
<glyph unicode="&#xc8;" horiz-adv-x="1356" d="M-115 0l11 33h116l348 1298h-118l10 35h1122l-110 -436h-35q1 10 1.5 21t0.5 32q0 178 -97 264t-298 86q-29 0 -45 -0.5t-29 -1.5l-166 -602q13 -1 28 -1.5t44 -0.5q148 0 234.5 49t131.5 158h33l-133 -506l-33 6q0 2 1 7q3 37 3 55q0 105 -59.5 151.5t-194.5 46.5 q-26 0 -40.5 -0.5t-26.5 -1.5l-168 -659q11 -1 25 -1.5t42 -0.5q237 0 400 95.5t268 295.5h35l-123 -422h-1178zM594 1794q0 47 29.5 76.5t74.5 29.5q33 0 63 -18t58 -55l248 -318h-121l-274 178q-41 28 -59.5 53.5t-18.5 53.5z" />
<glyph unicode="&#xc9;" horiz-adv-x="1356" d="M-115 0l11 33h116l348 1298h-118l10 35h1122l-110 -436h-35q1 10 1.5 21t0.5 32q0 178 -97 264t-298 86q-29 0 -45 -0.5t-29 -1.5l-166 -602q13 -1 28 -1.5t44 -0.5q148 0 234.5 49t131.5 158h33l-133 -506l-33 6q0 2 1 7q3 37 3 55q0 105 -59.5 151.5t-194.5 46.5 q-26 0 -40.5 -0.5t-26.5 -1.5l-168 -659q11 -1 25 -1.5t42 -0.5q237 0 400 95.5t268 295.5h35l-123 -422h-1178zM664 1509l309 320q36 37 67.5 54t65.5 17q39 0 69.5 -32t30.5 -74q0 -32 -20.5 -59.5t-61.5 -49.5l-340 -176h-120z" />
<glyph unicode="&#xca;" horiz-adv-x="1356" d="M-115 0l11 33h116l348 1298h-118l10 35h1122l-110 -436h-35q1 10 1.5 21t0.5 32q0 178 -97 264t-298 86q-29 0 -45 -0.5t-29 -1.5l-166 -602q13 -1 28 -1.5t44 -0.5q148 0 234.5 49t131.5 158h33l-133 -506l-33 6q0 2 1 7q3 37 3 55q0 105 -59.5 151.5t-194.5 46.5 q-26 0 -40.5 -0.5t-26.5 -1.5l-168 -659q11 -1 25 -1.5t42 -0.5q237 0 400 95.5t268 295.5h35l-123 -422h-1178zM520 1509l311 371h173l159 -371h-96l-174 172l-258 -172h-115z" />
<glyph unicode="&#xcb;" horiz-adv-x="1356" d="M-115 0l11 33h116l348 1298h-118l10 35h1122l-110 -436h-35q1 10 1.5 21t0.5 32q0 178 -97 264t-298 86q-29 0 -45 -0.5t-29 -1.5l-166 -602q13 -1 28 -1.5t44 -0.5q148 0 234.5 49t131.5 158h33l-133 -506l-33 6q0 2 1 7q3 37 3 55q0 105 -59.5 151.5t-194.5 46.5 q-26 0 -40.5 -0.5t-26.5 -1.5l-168 -659q11 -1 25 -1.5t42 -0.5q237 0 400 95.5t268 295.5h35l-123 -422h-1178zM561 1696q0 56 43 97.5t101 41.5q59 0 100 -40.5t41 -98.5q0 -63 -40 -103.5t-101 -40.5t-102.5 41.5t-41.5 102.5zM944 1696q0 56 43 97.5t100 41.5 q60 0 101 -40.5t41 -98.5q0 -63 -40 -103.5t-102 -40.5q-60 0 -101.5 41.5t-41.5 102.5z" />
<glyph unicode="&#xcc;" horiz-adv-x="782" d="M-115 0l11 33h116l348 1298h-116l8 35h635l-8 -35h-117l-346 -1298h114l-8 -33h-637zM342 1794q0 47 29.5 76.5t74.5 29.5q33 0 63 -18t58 -55l248 -318h-121l-274 178q-41 28 -59.5 53.5t-18.5 53.5z" />
<glyph unicode="&#xcd;" horiz-adv-x="782" d="M-115 0l11 33h116l348 1298h-116l8 35h635l-8 -35h-117l-346 -1298h114l-8 -33h-637zM412 1509l309 320q36 37 67.5 54t65.5 17q39 0 69.5 -32t30.5 -74q0 -32 -20.5 -59.5t-61.5 -49.5l-340 -176h-120z" />
<glyph unicode="&#xce;" horiz-adv-x="782" d="M-115 0l11 33h116l348 1298h-116l8 35h635l-8 -35h-117l-346 -1298h114l-8 -33h-637zM268 1509l311 371h173l159 -371h-96l-174 172l-258 -172h-115z" />
<glyph unicode="&#xcf;" horiz-adv-x="782" d="M-115 0l11 33h116l348 1298h-116l8 35h635l-8 -35h-117l-346 -1298h114l-8 -33h-637zM309 1696q0 56 43 97.5t101 41.5q59 0 100 -40.5t41 -98.5q0 -63 -40 -103.5t-101 -40.5t-102.5 41.5t-41.5 102.5zM692 1696q0 56 43 97.5t100 41.5q60 0 101 -40.5t41 -98.5 q0 -63 -40 -103.5t-102 -40.5q-60 0 -101.5 41.5t-41.5 102.5z" />
<glyph unicode="&#xd0;" horiz-adv-x="1597" d="M-109 0l11 33h116l170 639h-190l16 65h193l160 594h-119l10 35h578q191 0 295.5 -17t168.5 -57q119 -70 178.5 -189t59.5 -284q0 -216 -98.5 -399.5t-274.5 -294.5q-107 -68 -250 -96.5t-432 -28.5h-592zM422 33q2 0 6 -1q72 -3 104 -3q144 0 231.5 38.5t151.5 129.5 q41 58 77 140t81 224q52 167 76.5 294.5t24.5 229.5q0 136 -74.5 192t-257.5 56q-31 0 -46.5 -0.5t-27.5 -1.5l-160 -594h283l-19 -65h-280z" />
<glyph unicode="&#xd1;" horiz-adv-x="1427" d="M-168 0l8 35q86 6 145.5 81.5t100.5 229.5l221 825l-80 160h-96l8 35h502l508 -1026l182 678q14 51 19.5 84.5t5.5 64.5q0 72 -39.5 111t-126.5 53l8 35h424l-10 -35q-83 -8 -145.5 -86t-102.5 -225l-274 -1020h-201l-565 1126l-201 -778q-3 -11 -8 -31q-21 -84 -21 -116 q0 -72 43 -115t125 -53l-8 -33h-422zM614 1538q36 140 86 203t125 63q19 0 42 -3t48 -9l124 -29q12 -3 24.5 -4.5t23.5 -1.5q44 0 71.5 21.5t45.5 68.5h72q-30 -136 -81.5 -198t-133.5 -62q-18 0 -34.5 2t-31.5 6l-109 25q-5 1 -14 3q-49 11 -63 11q-43 0 -71.5 -23 t-47.5 -73h-76z" />
<glyph unicode="&#xd2;" horiz-adv-x="1587" d="M55 563q0 164 58 309.5t172 266.5q117 125 280 192.5t346 67.5q276 0 444.5 -165t168.5 -435q0 -141 -45 -271t-131 -241q-121 -155 -296 -237.5t-382 -82.5q-274 0 -444.5 165t-170.5 431zM418 262q0 -119 61 -186.5t168 -67.5q92 0 172.5 71.5t128.5 194.5 q32 85 65.5 190t65.5 222q44 156 63 252.5t19 159.5q0 116 -59 188t-154 72q-110 0 -189.5 -70t-135.5 -217q-94 -244 -149.5 -471t-55.5 -338zM719 1794q0 47 29.5 76.5t74.5 29.5q33 0 63 -18t58 -55l248 -318h-121l-274 178q-41 28 -59.5 53.5t-18.5 53.5z" />
<glyph unicode="&#xd3;" horiz-adv-x="1587" d="M55 563q0 164 58 309.5t172 266.5q117 125 280 192.5t346 67.5q276 0 444.5 -165t168.5 -435q0 -141 -45 -271t-131 -241q-121 -155 -296 -237.5t-382 -82.5q-274 0 -444.5 165t-170.5 431zM418 262q0 -119 61 -186.5t168 -67.5q92 0 172.5 71.5t128.5 194.5 q32 85 65.5 190t65.5 222q44 156 63 252.5t19 159.5q0 116 -59 188t-154 72q-110 0 -189.5 -70t-135.5 -217q-94 -244 -149.5 -471t-55.5 -338zM789 1509l309 320q36 37 67.5 54t65.5 17q39 0 69.5 -32t30.5 -74q0 -32 -20.5 -59.5t-61.5 -49.5l-340 -176h-120z" />
<glyph unicode="&#xd4;" horiz-adv-x="1587" d="M55 563q0 164 58 309.5t172 266.5q117 125 280 192.5t346 67.5q276 0 444.5 -165t168.5 -435q0 -141 -45 -271t-131 -241q-121 -155 -296 -237.5t-382 -82.5q-274 0 -444.5 165t-170.5 431zM418 262q0 -119 61 -186.5t168 -67.5q92 0 172.5 71.5t128.5 194.5 q32 85 65.5 190t65.5 222q44 156 63 252.5t19 159.5q0 116 -59 188t-154 72q-110 0 -189.5 -70t-135.5 -217q-94 -244 -149.5 -471t-55.5 -338zM645 1509l311 371h173l159 -371h-96l-174 172l-258 -172h-115z" />
<glyph unicode="&#xd5;" horiz-adv-x="1587" d="M55 563q0 164 58 309.5t172 266.5q117 125 280 192.5t346 67.5q276 0 444.5 -165t168.5 -435q0 -141 -45 -271t-131 -241q-121 -155 -296 -237.5t-382 -82.5q-274 0 -444.5 165t-170.5 431zM418 262q0 -119 61 -186.5t168 -67.5q92 0 172.5 71.5t128.5 194.5 q32 85 65.5 190t65.5 222q44 156 63 252.5t19 159.5q0 116 -59 188t-154 72q-110 0 -189.5 -70t-135.5 -217q-94 -244 -149.5 -471t-55.5 -338zM688 1538q36 140 86 203t125 63q19 0 42 -3t48 -9l124 -29q12 -3 24.5 -4.5t23.5 -1.5q44 0 71.5 21.5t45.5 68.5h72 q-30 -136 -81.5 -198t-133.5 -62q-18 0 -34.5 2t-31.5 6l-109 25q-5 1 -14 3q-49 11 -63 11q-43 0 -71.5 -23t-47.5 -73h-76z" />
<glyph unicode="&#xd6;" horiz-adv-x="1587" d="M55 563q0 164 58 309.5t172 266.5q117 125 280 192.5t346 67.5q276 0 444.5 -165t168.5 -435q0 -141 -45 -271t-131 -241q-121 -155 -296 -237.5t-382 -82.5q-274 0 -444.5 165t-170.5 431zM418 262q0 -119 61 -186.5t168 -67.5q92 0 172.5 71.5t128.5 194.5 q32 85 65.5 190t65.5 222q44 156 63 252.5t19 159.5q0 116 -59 188t-154 72q-110 0 -189.5 -70t-135.5 -217q-94 -244 -149.5 -471t-55.5 -338zM686 1696q0 56 43 97.5t101 41.5q59 0 100 -40.5t41 -98.5q0 -63 -40 -103.5t-101 -40.5t-102.5 41.5t-41.5 102.5zM1069 1696 q0 56 43 97.5t100 41.5q60 0 101 -40.5t41 -98.5q0 -63 -40 -103.5t-102 -40.5q-60 0 -101.5 41.5t-41.5 102.5z" />
<glyph unicode="&#xd7;" horiz-adv-x="1706" d="M268 170l441 440l-441 443l162 161l440 -440l441 440l162 -161l-441 -443l441 -440l-162 -162l-441 441l-440 -441z" />
<glyph unicode="&#xd8;" horiz-adv-x="1587" d="M55 563q0 163 58.5 310t171.5 266q119 125 281.5 192.5t346.5 67.5q91 0 168.5 -19.5t147.5 -58.5l65 96l37 -26l-65 -88q130 -89 194 -214t64 -290q0 -139 -44.5 -269t-129.5 -241q-119 -156 -294 -239t-386 -83q-93 0 -170.5 18.5t-147.5 57.5l-84 -109l-35 25l80 107 q-130 86 -194 208.5t-64 288.5zM418 272q0 -19 0.5 -32.5t1.5 -26.5l723 997q-23 71 -73.5 109.5t-121.5 38.5q-112 0 -190.5 -69.5t-134.5 -217.5q-93 -242 -149 -470t-56 -329zM432 154q31 -75 83 -110.5t132 -35.5q96 0 180.5 80t137.5 221q91 246 141.5 457.5 t50.5 341.5q0 19 -0.5 28t-1.5 15z" />
<glyph unicode="&#xd9;" horiz-adv-x="1507" d="M106 324q0 42 9.5 96t29.5 131l213 782h-118l8 33h635l-9 -33h-118l-219 -819q-24 -85 -36 -153.5t-12 -114.5q0 -106 71 -167t196 -61q83 0 155.5 24.5t130.5 72.5q57 45 98 125.5t89 257.5l143 522q14 49 19.5 82.5t5.5 66.5q0 72 -39.5 111t-126.5 53l10 33h422 l-10 -35q-84 -6 -144 -81.5t-102 -227.5l-145 -535q-48 -176 -84 -253.5t-84 -124.5q-76 -74 -176.5 -108t-247.5 -34q-285 0 -424.5 88.5t-139.5 268.5zM766 1794q0 47 29.5 76.5t74.5 29.5q33 0 63 -18t58 -55l248 -318h-121l-274 178q-41 28 -59.5 53.5t-18.5 53.5z" />
<glyph unicode="&#xda;" horiz-adv-x="1507" d="M106 324q0 42 9.5 96t29.5 131l213 782h-118l8 33h635l-9 -33h-118l-219 -819q-24 -85 -36 -153.5t-12 -114.5q0 -106 71 -167t196 -61q83 0 155.5 24.5t130.5 72.5q57 45 98 125.5t89 257.5l143 522q14 49 19.5 82.5t5.5 66.5q0 72 -39.5 111t-126.5 53l10 33h422 l-10 -35q-84 -6 -144 -81.5t-102 -227.5l-145 -535q-48 -176 -84 -253.5t-84 -124.5q-76 -74 -176.5 -108t-247.5 -34q-285 0 -424.5 88.5t-139.5 268.5zM836 1509l309 320q36 37 67.5 54t65.5 17q39 0 69.5 -32t30.5 -74q0 -32 -20.5 -59.5t-61.5 -49.5l-340 -176h-120z " />
<glyph unicode="&#xdb;" horiz-adv-x="1507" d="M106 324q0 42 9.5 96t29.5 131l213 782h-118l8 33h635l-9 -33h-118l-219 -819q-24 -85 -36 -153.5t-12 -114.5q0 -106 71 -167t196 -61q83 0 155.5 24.5t130.5 72.5q57 45 98 125.5t89 257.5l143 522q14 49 19.5 82.5t5.5 66.5q0 72 -39.5 111t-126.5 53l10 33h422 l-10 -35q-84 -6 -144 -81.5t-102 -227.5l-145 -535q-48 -176 -84 -253.5t-84 -124.5q-76 -74 -176.5 -108t-247.5 -34q-285 0 -424.5 88.5t-139.5 268.5zM692 1509l311 371h173l159 -371h-96l-174 172l-258 -172h-115z" />
<glyph unicode="&#xdc;" horiz-adv-x="1507" d="M106 324q0 42 9.5 96t29.5 131l213 782h-118l8 33h635l-9 -33h-118l-219 -819q-24 -85 -36 -153.5t-12 -114.5q0 -106 71 -167t196 -61q83 0 155.5 24.5t130.5 72.5q57 45 98 125.5t89 257.5l143 522q14 49 19.5 82.5t5.5 66.5q0 72 -39.5 111t-126.5 53l10 33h422 l-10 -35q-84 -6 -144 -81.5t-102 -227.5l-145 -535q-48 -176 -84 -253.5t-84 -124.5q-76 -74 -176.5 -108t-247.5 -34q-285 0 -424.5 88.5t-139.5 268.5zM733 1696q0 56 43 97.5t101 41.5q59 0 100 -40.5t41 -98.5q0 -63 -40 -103.5t-101 -40.5t-102.5 41.5t-41.5 102.5z M1116 1696q0 56 43 97.5t100 41.5q60 0 101 -40.5t41 -98.5q0 -63 -40 -103.5t-102 -40.5q-60 0 -101.5 41.5t-41.5 102.5z" />
<glyph unicode="&#xdd;" horiz-adv-x="1104" d="M20 0l11 33h121l135 526l-142 772h-108l8 35h617l-11 -35h-108l133 -715l270 396q45 67 64.5 112.5t19.5 81.5q0 54 -32.5 85.5t-94.5 39.5l8 35h449l-10 -35q-80 0 -156 -62.5t-199 -242.5l-297 -438l-149 -555h133l-14 -33h-648zM572 1509l309 320q36 37 67.5 54 t65.5 17q39 0 69.5 -32t30.5 -74q0 -32 -20.5 -59.5t-61.5 -49.5l-340 -176h-120z" />
<glyph unicode="&#xde;" horiz-adv-x="1374" d="M-113 0l11 33h116l348 1298h-118l10 35h639l-10 -35h-117l-74 -276h105q287 0 395 -70t108 -242q0 -119 -66 -222.5t-175 -158.5q-59 -28 -150 -40.5t-274 -12.5h-141l-76 -276h114l-8 -33h-637zM502 345q27 -3 40.5 -4t24.5 -1q88 0 147 27t89 82q50 85 83.5 203.5 t33.5 209.5q0 86 -45.5 124t-147.5 38q-7 0 -22 -1t-23 -1z" />
<glyph unicode="&#xdf;" horiz-adv-x="1186" d="M-410 -362q0 55 34.5 92t84.5 37t84.5 -35t34.5 -86q0 -44 -17 -73t-53 -46h9q132 0 233 574q18 103 29 160l14 82q116 650 279 847q96 117 221.5 176t275.5 59q153 0 243.5 -59t90.5 -158q0 -77 -51 -142.5t-164 -131.5l-48 -27q-163 -94 -163 -121q0 -22 70 -74 q16 -11 24 -18q119 -88 166 -156.5t47 -144.5q0 -81 -32.5 -161t-92.5 -146q-49 -54 -118.5 -84.5t-145.5 -30.5q-111 0 -183.5 63.5t-72.5 155.5q0 66 38 107t97 41q55 0 92 -37t37 -92q0 -60 -35.5 -96.5t-109.5 -53.5q26 -29 55.5 -43t65.5 -14q79 0 131.5 57t52.5 144 q0 95 -154 205l-20 14q-80 56 -102.5 90t-22.5 80q0 73 135 187q57 47 86 75q99 94 146 191.5t47 207.5q0 64 -29.5 98.5t-83.5 34.5q-63 0 -119 -52t-102 -154q-52 -117 -128 -473l-44 -205q-103 -451 -291.5 -730.5t-374.5 -279.5q-69 0 -117.5 43t-48.5 103z" />
<glyph unicode="&#xe0;" horiz-adv-x="1194" d="M-14 342q0 118 32.5 217.5t98.5 179.5q74 93 163.5 140t192.5 47q107 0 169.5 -49.5t70.5 -139.5l47 164h354l-186 -688q-9 -33 -14 -60t-5 -40q0 -20 10.5 -29.5t30.5 -9.5q23 0 57 33t87 106l24 -16q-78 -116 -157.5 -169t-176.5 -53q-96 0 -151 43.5t-66 126.5 q-45 -86 -111 -128t-159 -42q-145 0 -228 98t-83 269zM297 119q0 -40 21.5 -63t58.5 -23q51 0 95 34t75 99q18 36 36 91t56 192q24 85 34.5 145.5t10.5 112.5q0 69 -28 111t-74 42q-50 0 -85 -46t-63 -148l-115 -424q-11 -43 -16.5 -73t-5.5 -50zM438 1321q0 47 29.5 76.5 t74.5 29.5q33 0 63 -18t58 -55l248 -318h-121l-274 178q-41 28 -59.5 53.5t-18.5 53.5z" />
<glyph unicode="&#xe1;" horiz-adv-x="1194" d="M-14 342q0 118 32.5 217.5t98.5 179.5q74 93 163.5 140t192.5 47q107 0 169.5 -49.5t70.5 -139.5l47 164h354l-186 -688q-9 -33 -14 -60t-5 -40q0 -20 10.5 -29.5t30.5 -9.5q23 0 57 33t87 106l24 -16q-78 -116 -157.5 -169t-176.5 -53q-96 0 -151 43.5t-66 126.5 q-45 -86 -111 -128t-159 -42q-145 0 -228 98t-83 269zM297 119q0 -40 21.5 -63t58.5 -23q51 0 95 34t75 99q18 36 36 91t56 192q24 85 34.5 145.5t10.5 112.5q0 69 -28 111t-74 42q-50 0 -85 -46t-63 -148l-115 -424q-11 -43 -16.5 -73t-5.5 -50zM508 1036l309 320 q36 37 67.5 54t65.5 17q39 0 69.5 -32t30.5 -74q0 -32 -20.5 -59.5t-61.5 -49.5l-340 -176h-120z" />
<glyph unicode="&#xe2;" horiz-adv-x="1194" d="M-14 342q0 118 32.5 217.5t98.5 179.5q74 93 163.5 140t192.5 47q107 0 169.5 -49.5t70.5 -139.5l47 164h354l-186 -688q-9 -33 -14 -60t-5 -40q0 -20 10.5 -29.5t30.5 -9.5q23 0 57 33t87 106l24 -16q-78 -116 -157.5 -169t-176.5 -53q-96 0 -151 43.5t-66 126.5 q-45 -86 -111 -128t-159 -42q-145 0 -228 98t-83 269zM297 119q0 -40 21.5 -63t58.5 -23q51 0 95 34t75 99q18 36 36 91t56 192q24 85 34.5 145.5t10.5 112.5q0 69 -28 111t-74 42q-50 0 -85 -46t-63 -148l-115 -424q-11 -43 -16.5 -73t-5.5 -50zM364 1036l311 371h173 l159 -371h-96l-174 172l-258 -172h-115z" />
<glyph unicode="&#xe3;" horiz-adv-x="1194" d="M-14 342q0 118 32.5 217.5t98.5 179.5q74 93 163.5 140t192.5 47q107 0 169.5 -49.5t70.5 -139.5l47 164h354l-186 -688q-9 -33 -14 -60t-5 -40q0 -20 10.5 -29.5t30.5 -9.5q23 0 57 33t87 106l24 -16q-78 -116 -157.5 -169t-176.5 -53q-96 0 -151 43.5t-66 126.5 q-45 -86 -111 -128t-159 -42q-145 0 -228 98t-83 269zM297 119q0 -40 21.5 -63t58.5 -23q51 0 95 34t75 99q18 36 36 91t56 192q24 85 34.5 145.5t10.5 112.5q0 69 -28 111t-74 42q-50 0 -85 -46t-63 -148l-115 -424q-11 -43 -16.5 -73t-5.5 -50zM407 1065q36 140 86 203 t125 63q19 0 42 -3t48 -9l124 -29q12 -3 24.5 -4.5t23.5 -1.5q44 0 71.5 21.5t45.5 68.5h72q-30 -136 -81.5 -198t-133.5 -62q-18 0 -34.5 2t-31.5 6l-109 25q-5 1 -14 3q-49 11 -63 11q-43 0 -71.5 -23t-47.5 -73h-76z" />
<glyph unicode="&#xe4;" horiz-adv-x="1194" d="M-14 342q0 118 32.5 217.5t98.5 179.5q74 93 163.5 140t192.5 47q107 0 169.5 -49.5t70.5 -139.5l47 164h354l-186 -688q-9 -33 -14 -60t-5 -40q0 -20 10.5 -29.5t30.5 -9.5q23 0 57 33t87 106l24 -16q-78 -116 -157.5 -169t-176.5 -53q-96 0 -151 43.5t-66 126.5 q-45 -86 -111 -128t-159 -42q-145 0 -228 98t-83 269zM297 119q0 -40 21.5 -63t58.5 -23q51 0 95 34t75 99q18 36 36 91t56 192q24 85 34.5 145.5t10.5 112.5q0 69 -28 111t-74 42q-50 0 -85 -46t-63 -148l-115 -424q-11 -43 -16.5 -73t-5.5 -50zM405 1223q0 56 43 97.5 t101 41.5q59 0 100 -40.5t41 -98.5q0 -63 -40 -103.5t-101 -40.5t-102.5 41.5t-41.5 102.5zM788 1223q0 56 43 97.5t100 41.5q60 0 101 -40.5t41 -98.5q0 -63 -40 -103.5t-102 -40.5q-60 0 -101.5 41.5t-41.5 102.5z" />
<glyph unicode="&#xe5;" horiz-adv-x="1194" d="M-14 342q0 118 32.5 217.5t98.5 179.5q74 93 163.5 140t192.5 47q107 0 169.5 -49.5t70.5 -139.5l47 164h354l-186 -688q-9 -33 -14 -60t-5 -40q0 -20 10.5 -29.5t30.5 -9.5q23 0 57 33t87 106l24 -16q-78 -116 -157.5 -169t-176.5 -53q-96 0 -151 43.5t-66 126.5 q-45 -86 -111 -128t-159 -42q-145 0 -228 98t-83 269zM297 119q0 -40 21.5 -63t58.5 -23q51 0 95 34t75 99q18 36 36 91t56 192q24 85 34.5 145.5t10.5 112.5q0 69 -28 111t-74 42q-50 0 -85 -46t-63 -148l-115 -424q-11 -43 -16.5 -73t-5.5 -50zM440 1257q0 112 77.5 189.5 t189.5 77.5q111 0 188.5 -77.5t77.5 -189.5t-77 -189t-189 -77q-113 0 -190 77t-77 189zM555 1255q0 -64 43.5 -107.5t108.5 -43.5q63 0 107 44t44 107q0 65 -44 109.5t-107 44.5q-65 0 -108.5 -44t-43.5 -110z" />
<glyph unicode="&#xe6;" horiz-adv-x="1677" d="M-18 211q0 158 115 226.5t388 68.5q48 0 156 -4h6l27 114q6 23 9 53t3 66q0 79 -47.5 118.5t-140.5 39.5q-55 0 -92 -19t-37 -43l39 -41q38 -42 38 -94q0 -58 -40.5 -92.5t-110.5 -34.5q-74 0 -115 34.5t-41 96.5q0 109 97 167.5t276 58.5q120 0 213.5 -25.5t155.5 -75.5 q84 49 171 74t175 25q155 0 253.5 -71.5t98.5 -182.5q0 -123 -105.5 -209t-263.5 -86q-45 0 -104 2.5t-125 7.5q-22 -65 -32.5 -119t-10.5 -98q0 -73 39 -111.5t113 -38.5q76 0 163 42t193 130l20 -26q-109 -97 -214.5 -143t-217.5 -46q-118 0 -208 33.5t-142 95.5 q-89 -65 -183 -97t-200 -32q-168 0 -243.5 56t-75.5 180zM307 113q0 -49 19.5 -73t58.5 -24q85 0 152 116.5t104 330.5l-48 3q-16 1 -28 1q-66 0 -110 -17.5t-68 -54.5q-33 -52 -56.5 -134t-23.5 -148zM989 420q8 -1 18 -1.5t27 -0.5q56 0 91 17.5t61 58.5q37 58 64.5 150.5 t27.5 150.5q0 41 -22.5 67.5t-57.5 26.5q-46 0 -77 -45t-62 -160z" />
<glyph unicode="&#xe7;" horiz-adv-x="963" d="M-27 387q0 108 44 208.5t124 178.5q81 76 181.5 114t222.5 38q163 0 261.5 -63t98.5 -165q0 -67 -46 -112t-114 -45q-65 0 -111 46.5t-46 112.5q0 61 40.5 101.5t114.5 54.5q-23 15 -47 22t-51 7q-63 0 -113 -38t-79 -108q-19 -42 -41.5 -115.5t-53.5 -191.5 q-30 -119 -44.5 -189t-14.5 -100q0 -57 46.5 -93t121.5 -36q99 0 184 49.5t176 159.5l27 -20q-96 -119 -201.5 -173.5t-242.5 -54.5q-201 0 -319 111.5t-118 300.5zM31 -373l20 45q69 -28 108.5 -39.5t67.5 -11.5q51 0 79 26t28 72q0 51 -20 75t-62 24q-6 0 -15 -1l-26 -3 l61 186h41l-48 -139q21 3 41 4.5t38 1.5q93 0 146 -40.5t53 -111.5q0 -67 -64.5 -109t-169.5 -42q-56 0 -124.5 15.5t-153.5 47.5z" />
<glyph unicode="&#xe8;" horiz-adv-x="1028" d="M-29 354q0 106 41.5 205t118.5 176q88 89 211.5 140t253.5 51q152 0 252 -71.5t100 -176.5q0 -130 -103.5 -216.5t-262.5 -86.5q-45 0 -104 2.5t-126 7.5q-23 -71 -34 -123t-11 -94q0 -73 39 -111.5t113 -38.5q77 0 165 42.5t191 129.5l21 -26q-110 -97 -215.5 -143 t-217.5 -46q-208 0 -320 98.5t-112 280.5zM358 420q8 0 20.5 -1t18.5 -1q62 0 98.5 17.5t61.5 58.5q37 59 63.5 150.5t26.5 150.5q0 41 -22.5 67.5t-57.5 26.5q-45 0 -76.5 -45t-62.5 -160zM340 1321q0 47 29.5 76.5t74.5 29.5q33 0 63 -18t58 -55l248 -318h-121l-274 178 q-41 28 -59.5 53.5t-18.5 53.5z" />
<glyph unicode="&#xe9;" horiz-adv-x="1028" d="M-29 354q0 106 41.5 205t118.5 176q88 89 211.5 140t253.5 51q152 0 252 -71.5t100 -176.5q0 -130 -103.5 -216.5t-262.5 -86.5q-45 0 -104 2.5t-126 7.5q-23 -71 -34 -123t-11 -94q0 -73 39 -111.5t113 -38.5q77 0 165 42.5t191 129.5l21 -26q-110 -97 -215.5 -143 t-217.5 -46q-208 0 -320 98.5t-112 280.5zM358 420q8 0 20.5 -1t18.5 -1q62 0 98.5 17.5t61.5 58.5q37 59 63.5 150.5t26.5 150.5q0 41 -22.5 67.5t-57.5 26.5q-45 0 -76.5 -45t-62.5 -160zM410 1036l309 320q36 37 67.5 54t65.5 17q39 0 69.5 -32t30.5 -74 q0 -32 -20.5 -59.5t-61.5 -49.5l-340 -176h-120z" />
<glyph unicode="&#xea;" horiz-adv-x="1028" d="M-29 354q0 106 41.5 205t118.5 176q88 89 211.5 140t253.5 51q152 0 252 -71.5t100 -176.5q0 -130 -103.5 -216.5t-262.5 -86.5q-45 0 -104 2.5t-126 7.5q-23 -71 -34 -123t-11 -94q0 -73 39 -111.5t113 -38.5q77 0 165 42.5t191 129.5l21 -26q-110 -97 -215.5 -143 t-217.5 -46q-208 0 -320 98.5t-112 280.5zM358 420q8 0 20.5 -1t18.5 -1q62 0 98.5 17.5t61.5 58.5q37 59 63.5 150.5t26.5 150.5q0 41 -22.5 67.5t-57.5 26.5q-45 0 -76.5 -45t-62.5 -160zM266 1036l311 371h173l159 -371h-96l-174 172l-258 -172h-115z" />
<glyph unicode="&#xeb;" horiz-adv-x="1028" d="M-29 354q0 106 41.5 205t118.5 176q88 89 211.5 140t253.5 51q152 0 252 -71.5t100 -176.5q0 -130 -103.5 -216.5t-262.5 -86.5q-45 0 -104 2.5t-126 7.5q-23 -71 -34 -123t-11 -94q0 -73 39 -111.5t113 -38.5q77 0 165 42.5t191 129.5l21 -26q-110 -97 -215.5 -143 t-217.5 -46q-208 0 -320 98.5t-112 280.5zM358 420q8 0 20.5 -1t18.5 -1q62 0 98.5 17.5t61.5 58.5q37 59 63.5 150.5t26.5 150.5q0 41 -22.5 67.5t-57.5 26.5q-45 0 -76.5 -45t-62.5 -160zM307 1223q0 56 43 97.5t101 41.5q59 0 100 -40.5t41 -98.5q0 -63 -40 -103.5 t-101 -40.5t-102.5 41.5t-41.5 102.5zM690 1223q0 56 43 97.5t100 41.5q60 0 101 -40.5t41 -98.5q0 -63 -40 -103.5t-102 -40.5q-60 0 -101.5 41.5t-41.5 102.5z" />
<glyph unicode="&#xec;" horiz-adv-x="653" d="M2 174q0 41 26 135q5 15 7 23l151 538h-116l10 31q20 0 57 -1t53 -1q112 0 203 6t162 19l-205 -711q-1 -4 -3 -11q-15 -51 -15 -71q0 -27 12.5 -42t34.5 -15q24 0 58 32.5t87 106.5l25 -16q-80 -118 -158 -170t-176 -52q-103 0 -158 51.5t-55 147.5zM154 1321 q0 47 29.5 76.5t74.5 29.5q33 0 63 -18t58 -55l248 -318h-121l-274 178q-41 28 -59.5 53.5t-18.5 53.5z" />
<glyph unicode="&#xed;" horiz-adv-x="653" d="M2 174q0 41 26 135q5 15 7 23l151 538h-116l10 31q20 0 57 -1t53 -1q112 0 203 6t162 19l-205 -711q-1 -4 -3 -11q-15 -51 -15 -71q0 -27 12.5 -42t34.5 -15q24 0 58 32.5t87 106.5l25 -16q-80 -118 -158 -170t-176 -52q-103 0 -158 51.5t-55 147.5zM224 1036l309 320 q36 37 67.5 54t65.5 17q39 0 69.5 -32t30.5 -74q0 -32 -20.5 -59.5t-61.5 -49.5l-340 -176h-120z" />
<glyph unicode="&#xee;" horiz-adv-x="653" d="M2 174q0 41 26 135q5 15 7 23l151 538h-116l10 31q20 0 57 -1t53 -1q112 0 203 6t162 19l-205 -711q-1 -4 -3 -11q-15 -51 -15 -71q0 -27 12.5 -42t34.5 -15q24 0 58 32.5t87 106.5l25 -16q-80 -118 -158 -170t-176 -52q-103 0 -158 51.5t-55 147.5zM80 1036l311 371h173 l159 -371h-96l-174 172l-258 -172h-115z" />
<glyph unicode="&#xef;" horiz-adv-x="653" d="M2 174q0 41 26 135q5 15 7 23l151 538h-116l10 31q20 0 57 -1t53 -1q112 0 203 6t162 19l-205 -711q-1 -4 -3 -11q-15 -51 -15 -71q0 -27 12.5 -42t34.5 -15q24 0 58 32.5t87 106.5l25 -16q-80 -118 -158 -170t-176 -52q-103 0 -158 51.5t-55 147.5zM121 1223 q0 56 43 97.5t101 41.5q59 0 100 -40.5t41 -98.5q0 -63 -40 -103.5t-101 -40.5t-102.5 41.5t-41.5 102.5zM504 1223q0 56 43 97.5t100 41.5q60 0 101 -40.5t41 -98.5q0 -63 -40 -103.5t-102 -40.5q-60 0 -101.5 41.5t-41.5 102.5z" />
<glyph unicode="&#xf0;" horiz-adv-x="1139" d="M-31 381q0 115 43.5 216.5t124.5 174.5q89 79 188 119.5t205 40.5q46 0 86 -7t78 -21q-4 59 -15 117.5t-28 115.5l-356 -99l-19 66l347 96q-27 51 -60 98t-76 93l52 34q64 -40 123 -86t112 -98l313 88l21 -67l-285 -78q100 -137 150.5 -286.5t50.5 -309.5 q0 -286 -163.5 -449.5t-448.5 -163.5q-202 0 -322.5 111t-120.5 295zM293 117q0 -50 29 -79.5t77 -29.5q62 0 102.5 52t78.5 184l86 317q19 70 29 120.5t10 86.5q0 63 -24.5 94t-74.5 31q-60 0 -101.5 -51.5t-74.5 -169.5l-115 -426q-11 -45 -16.5 -76.5t-5.5 -52.5z" />
<glyph unicode="&#xf1;" horiz-adv-x="1241" d="M-66 0l259 870h-119l12 31q20 0 57 -1t54 -1q106 0 196.5 5.5t165.5 16.5l-108 -343q112 179 221 263.5t227 84.5q96 0 151.5 -53t55.5 -144q0 -38 -11.5 -88.5t-39.5 -130.5l-101 -287q-15 -43 -19.5 -62t-4.5 -34q0 -22 12.5 -34.5t34.5 -12.5q26 0 58.5 29t90.5 110 l25 -14q-81 -118 -159 -169.5t-175 -51.5q-102 0 -159.5 50t-57.5 138q0 34 8.5 73t28.5 95l129 377q5 14 7.5 24.5t2.5 20.5q0 27 -13 42t-38 15q-22 0 -49 -15.5t-55 -45.5q-67 -69 -120.5 -152t-66.5 -129l-139 -477h-361zM416 1065q36 140 86 203t125 63q19 0 42 -3 t48 -9l124 -29q12 -3 24.5 -4.5t23.5 -1.5q44 0 71.5 21.5t45.5 68.5h72q-30 -136 -81.5 -198t-133.5 -62q-18 0 -34.5 2t-31.5 6l-109 25q-5 1 -14 3q-49 11 -63 11q-43 0 -71.5 -23t-47.5 -73h-76z" />
<glyph unicode="&#xf2;" horiz-adv-x="1139" d="M-20 379q0 237 164 392t417 155q220 0 341.5 -108.5t121.5 -303.5q0 -238 -167 -388.5t-435 -150.5q-201 0 -321.5 110.5t-120.5 293.5zM293 117q0 -52 29.5 -80.5t83.5 -28.5q57 0 98.5 56t75.5 180l108 393q13 46 20 83t7 60q0 53 -28.5 82t-80.5 29q-62 0 -102.5 -50 t-73.5 -169l-115 -426q-11 -39 -16.5 -72t-5.5 -57zM395 1321q0 47 29.5 76.5t74.5 29.5q33 0 63 -18t58 -55l248 -318h-121l-274 178q-41 28 -59.5 53.5t-18.5 53.5z" />
<glyph unicode="&#xf3;" horiz-adv-x="1139" d="M-20 379q0 237 164 392t417 155q220 0 341.5 -108.5t121.5 -303.5q0 -238 -167 -388.5t-435 -150.5q-201 0 -321.5 110.5t-120.5 293.5zM293 117q0 -52 29.5 -80.5t83.5 -28.5q57 0 98.5 56t75.5 180l108 393q13 46 20 83t7 60q0 53 -28.5 82t-80.5 29q-62 0 -102.5 -50 t-73.5 -169l-115 -426q-11 -39 -16.5 -72t-5.5 -57zM465 1036l309 320q36 37 67.5 54t65.5 17q39 0 69.5 -32t30.5 -74q0 -32 -20.5 -59.5t-61.5 -49.5l-340 -176h-120z" />
<glyph unicode="&#xf4;" horiz-adv-x="1139" d="M-20 379q0 237 164 392t417 155q220 0 341.5 -108.5t121.5 -303.5q0 -238 -167 -388.5t-435 -150.5q-201 0 -321.5 110.5t-120.5 293.5zM293 117q0 -52 29.5 -80.5t83.5 -28.5q57 0 98.5 56t75.5 180l108 393q13 46 20 83t7 60q0 53 -28.5 82t-80.5 29q-62 0 -102.5 -50 t-73.5 -169l-115 -426q-11 -39 -16.5 -72t-5.5 -57zM321 1036l311 371h173l159 -371h-96l-174 172l-258 -172h-115z" />
<glyph unicode="&#xf5;" horiz-adv-x="1139" d="M-20 379q0 237 164 392t417 155q220 0 341.5 -108.5t121.5 -303.5q0 -238 -167 -388.5t-435 -150.5q-201 0 -321.5 110.5t-120.5 293.5zM293 117q0 -52 29.5 -80.5t83.5 -28.5q57 0 98.5 56t75.5 180l108 393q13 46 20 83t7 60q0 53 -28.5 82t-80.5 29q-62 0 -102.5 -50 t-73.5 -169l-115 -426q-11 -39 -16.5 -72t-5.5 -57zM364 1065q36 140 86 203t125 63q19 0 42 -3t48 -9l124 -29q12 -3 24.5 -4.5t23.5 -1.5q44 0 71.5 21.5t45.5 68.5h72q-30 -136 -81.5 -198t-133.5 -62q-18 0 -34.5 2t-31.5 6l-109 25q-5 1 -14 3q-49 11 -63 11 q-43 0 -71.5 -23t-47.5 -73h-76z" />
<glyph unicode="&#xf6;" horiz-adv-x="1139" d="M-20 379q0 237 164 392t417 155q220 0 341.5 -108.5t121.5 -303.5q0 -238 -167 -388.5t-435 -150.5q-201 0 -321.5 110.5t-120.5 293.5zM293 117q0 -52 29.5 -80.5t83.5 -28.5q57 0 98.5 56t75.5 180l108 393q13 46 20 83t7 60q0 53 -28.5 82t-80.5 29q-62 0 -102.5 -50 t-73.5 -169l-115 -426q-11 -39 -16.5 -72t-5.5 -57zM362 1223q0 56 43 97.5t101 41.5q59 0 100 -40.5t41 -98.5q0 -63 -40 -103.5t-101 -40.5t-102.5 41.5t-41.5 102.5zM745 1223q0 56 43 97.5t100 41.5q60 0 101 -40.5t41 -98.5q0 -63 -40 -103.5t-102 -40.5 q-60 0 -101.5 41.5t-41.5 102.5z" />
<glyph unicode="&#xf7;" horiz-adv-x="1706" d="M254 496v231h1198v-231h-1198zM688 205q0 68 49 117t117 49t116 -48.5t48 -117.5q0 -68 -47.5 -116t-116.5 -48t-117.5 48t-48.5 116zM688 1016q0 68 49 117t117 49q67 0 115.5 -49t48.5 -117t-48.5 -116t-117.5 -48t-116.5 48t-47.5 116z" />
<glyph unicode="&#xf8;" horiz-adv-x="1139" d="M-18 389q0 229 165.5 383t413.5 154q84 0 156.5 -17t138.5 -51l76 78l39 -25l-78 -82q65 -60 97 -138.5t32 -176.5q0 -242 -165.5 -391.5t-434.5 -149.5q-85 0 -147.5 17t-112.5 53l-92 -92l-35 29l84 86q-71 62 -104 139.5t-33 183.5zM285 109q0 -45 31 -74t79 -29 q63 0 103 47t84 189l116 370l-405 -415q-4 -27 -6 -49.5t-2 -38.5zM315 287l400 410q3 23 4.5 41.5t1.5 33.5q0 60 -27.5 90.5t-81.5 30.5q-65 0 -106.5 -48.5t-77.5 -172.5z" />
<glyph unicode="&#xf9;" horiz-adv-x="1214" d="M2 174q0 28 7 62.5t26 95.5l158 538h-119l12 31q20 0 57 -1t54 -1q106 0 196.5 5.5t165.5 16.5l-219 -757q-3 -9 -4.5 -18t-1.5 -17q0 -25 12.5 -39t34.5 -14q16 0 50 22.5t71 59.5q47 47 82 99.5t45 88.5l151 555h346l-182 -688q-7 -26 -10.5 -47t-3.5 -37 q0 -30 11.5 -43.5t35.5 -13.5q21 0 54.5 34t86.5 107l25 -16q-80 -119 -159 -170.5t-179 -51.5q-105 0 -159 45t-54 132q0 22 1 34t3 20q-104 -119 -195.5 -175t-183.5 -56q-104 0 -159.5 51t-55.5 148zM434 1321q0 47 29.5 76.5t74.5 29.5q33 0 63 -18t58 -55l248 -318 h-121l-274 178q-41 28 -59.5 53.5t-18.5 53.5z" />
<glyph unicode="&#xfa;" horiz-adv-x="1214" d="M2 174q0 28 7 62.5t26 95.5l158 538h-119l12 31q20 0 57 -1t54 -1q106 0 196.5 5.5t165.5 16.5l-219 -757q-3 -9 -4.5 -18t-1.5 -17q0 -25 12.5 -39t34.5 -14q16 0 50 22.5t71 59.5q47 47 82 99.5t45 88.5l151 555h346l-182 -688q-7 -26 -10.5 -47t-3.5 -37 q0 -30 11.5 -43.5t35.5 -13.5q21 0 54.5 34t86.5 107l25 -16q-80 -119 -159 -170.5t-179 -51.5q-105 0 -159 45t-54 132q0 22 1 34t3 20q-104 -119 -195.5 -175t-183.5 -56q-104 0 -159.5 51t-55.5 148zM504 1036l309 320q36 37 67.5 54t65.5 17q39 0 69.5 -32t30.5 -74 q0 -32 -20.5 -59.5t-61.5 -49.5l-340 -176h-120z" />
<glyph unicode="&#xfb;" horiz-adv-x="1214" d="M2 174q0 28 7 62.5t26 95.5l158 538h-119l12 31q20 0 57 -1t54 -1q106 0 196.5 5.5t165.5 16.5l-219 -757q-3 -9 -4.5 -18t-1.5 -17q0 -25 12.5 -39t34.5 -14q16 0 50 22.5t71 59.5q47 47 82 99.5t45 88.5l151 555h346l-182 -688q-7 -26 -10.5 -47t-3.5 -37 q0 -30 11.5 -43.5t35.5 -13.5q21 0 54.5 34t86.5 107l25 -16q-80 -119 -159 -170.5t-179 -51.5q-105 0 -159 45t-54 132q0 22 1 34t3 20q-104 -119 -195.5 -175t-183.5 -56q-104 0 -159.5 51t-55.5 148zM360 1036l311 371h173l159 -371h-96l-174 172l-258 -172h-115z" />
<glyph unicode="&#xfc;" horiz-adv-x="1214" d="M2 174q0 28 7 62.5t26 95.5l158 538h-119l12 31q20 0 57 -1t54 -1q106 0 196.5 5.5t165.5 16.5l-219 -757q-3 -9 -4.5 -18t-1.5 -17q0 -25 12.5 -39t34.5 -14q16 0 50 22.5t71 59.5q47 47 82 99.5t45 88.5l151 555h346l-182 -688q-7 -26 -10.5 -47t-3.5 -37 q0 -30 11.5 -43.5t35.5 -13.5q21 0 54.5 34t86.5 107l25 -16q-80 -119 -159 -170.5t-179 -51.5q-105 0 -159 45t-54 132q0 22 1 34t3 20q-104 -119 -195.5 -175t-183.5 -56q-104 0 -159.5 51t-55.5 148zM401 1223q0 56 43 97.5t101 41.5q59 0 100 -40.5t41 -98.5 q0 -63 -40 -103.5t-101 -40.5t-102.5 41.5t-41.5 102.5zM784 1223q0 56 43 97.5t100 41.5q60 0 101 -40.5t41 -98.5q0 -63 -40 -103.5t-102 -40.5q-60 0 -101.5 41.5t-41.5 102.5z" />
<glyph unicode="&#xfd;" horiz-adv-x="1208" d="M-51 -346q0 73 42.5 118.5t110.5 45.5q63 0 104.5 -46t41.5 -116q0 -34 -13 -63.5t-38 -55.5q75 10 143.5 73t118.5 169l-240 870q-17 59 -27.5 72.5t-27.5 13.5q-28 0 -61.5 -42t-69.5 -124l-29 17q72 159 169.5 247.5t201.5 88.5q72 0 116.5 -53.5t77.5 -184.5 l103 -401q34 94 85 252q128 391 257 391q72 0 118 -46t46 -118q0 -71 -44.5 -116.5t-113.5 -45.5q-54 0 -90.5 29t-63.5 94q-27 -71 -116.5 -323.5t-157.5 -415.5q-119 -282 -218 -386t-235 -104q-89 0 -139.5 42.5t-50.5 117.5zM500 1036l309 320q36 37 67.5 54t65.5 17 q39 0 69.5 -32t30.5 -74q0 -32 -20.5 -59.5t-61.5 -49.5l-340 -176h-120z" />
<glyph unicode="&#xfe;" horiz-adv-x="1241" d="M-303 -494l10 29h115l500 1800h-117l12 31q17 -1 37.5 -1.5t58.5 -0.5q124 0 222 13t161 38l-204 -706q80 110 159.5 162.5t167.5 52.5q140 0 220.5 -93t80.5 -256q0 -117 -40.5 -225.5t-116.5 -193.5q-79 -88 -168.5 -131t-192.5 -43q-98 0 -156.5 39t-95.5 129 l-166 -615h119l-12 -29h-594zM377 209q0 -68 39 -117t92 -49q51 0 92 57t78 181q53 176 85 314t32 181q0 40 -18.5 61t-53.5 21q-37 0 -89.5 -38t-94.5 -97q-28 -39 -49 -83t-37 -95q-41 -128 -58.5 -206t-17.5 -130z" />
<glyph unicode="&#xff;" horiz-adv-x="1208" d="M-51 -346q0 73 42.5 118.5t110.5 45.5q63 0 104.5 -46t41.5 -116q0 -34 -13 -63.5t-38 -55.5q75 10 143.5 73t118.5 169l-240 870q-17 59 -27.5 72.5t-27.5 13.5q-28 0 -61.5 -42t-69.5 -124l-29 17q72 159 169.5 247.5t201.5 88.5q72 0 116.5 -53.5t77.5 -184.5 l103 -401q34 94 85 252q128 391 257 391q72 0 118 -46t46 -118q0 -71 -44.5 -116.5t-113.5 -45.5q-54 0 -90.5 29t-63.5 94q-27 -71 -116.5 -323.5t-157.5 -415.5q-119 -282 -218 -386t-235 -104q-89 0 -139.5 42.5t-50.5 117.5zM397 1223q0 56 43 97.5t101 41.5 q59 0 100 -40.5t41 -98.5q0 -63 -40 -103.5t-101 -40.5t-102.5 41.5t-41.5 102.5zM780 1223q0 56 43 97.5t100 41.5q60 0 101 -40.5t41 -98.5q0 -63 -40 -103.5t-102 -40.5q-60 0 -101.5 41.5t-41.5 102.5z" />
<glyph unicode="&#x131;" horiz-adv-x="653" d="M2 174q0 41 26 135q5 15 7 23l151 538h-116l10 31q20 0 57 -1t53 -1q112 0 203 6t162 19l-205 -711q-1 -4 -3 -11q-15 -51 -15 -71q0 -27 12.5 -42t34.5 -15q24 0 58 32.5t87 106.5l25 -16q-80 -118 -158 -170t-176 -52q-103 0 -158 51.5t-55 147.5z" />
<glyph unicode="&#x152;" horiz-adv-x="2249" d="M55 567q0 195 86.5 365t243.5 287q118 87 264 128.5t342 41.5q55 0 218.5 -11.5t273.5 -11.5h784l-110 -436h-33q1 10 1.5 21t0.5 32q0 177 -97.5 262.5t-299.5 85.5h-74l-166 -602q13 -1 28 -1.5t44 -0.5q148 0 234.5 49t131.5 158h33l-133 -506l-33 6q0 2 1 7 q3 37 3 55q0 106 -59.5 152t-198.5 46q-25 0 -38.5 -0.5t-24.5 -1.5l-168 -659h67q237 0 400 94.5t268 294.5h35l-123 -422h-785q-122 0 -277 -8t-185 -8q-304 0 -479 156.5t-175 426.5zM432 295q0 -134 69 -202t206 -68q111 0 168.5 59t109.5 250l199 721q13 47 19.5 83 t6.5 56q0 77 -51.5 115.5t-154.5 38.5q-120 0 -201 -51t-144 -167q-42 -77 -86 -192.5t-77 -243.5q-31 -113 -47.5 -218t-16.5 -181z" />
<glyph unicode="&#x153;" horiz-adv-x="1683" d="M-20 379q0 234 165 390.5t414 156.5q98 0 181 -25.5t159 -79.5q95 53 181 78t171 25q151 0 251 -71.5t100 -176.5q0 -130 -103.5 -216.5t-263.5 -86.5q-45 0 -104 2.5t-125 7.5q-28 -85 -40 -136.5t-12 -82.5q0 -71 39.5 -109.5t112.5 -38.5q82 0 169.5 41.5t192.5 130.5 l23 -26q-109 -97 -214.5 -143t-217.5 -46q-89 0 -163.5 20.5t-137.5 61.5q-72 -43 -152 -63.5t-174 -20.5q-208 0 -330 111t-122 297zM293 115q0 -52 29.5 -80.5t83.5 -28.5q57 0 98.5 56t75.5 180l108 395q13 46 20 83t7 60q0 54 -28 83.5t-79 29.5q-63 0 -104 -50.5 t-74 -170.5l-115 -428q-11 -39 -16.5 -72t-5.5 -57zM1014 418q6 0 18 -1t19 -1q60 0 97 18t62 60q38 60 65.5 151t27.5 148q0 41 -22.5 67.5t-57.5 26.5q-47 0 -79 -46.5t-61 -158.5z" />
<glyph unicode="&#x178;" horiz-adv-x="1104" d="M20 0l11 33h121l135 526l-142 772h-108l8 35h617l-11 -35h-108l133 -715l270 396q45 67 64.5 112.5t19.5 81.5q0 54 -32.5 85.5t-94.5 39.5l8 35h449l-10 -35q-80 0 -156 -62.5t-199 -242.5l-297 -438l-149 -555h133l-14 -33h-648zM469 1696q0 56 43 97.5t101 41.5 q59 0 100 -40.5t41 -98.5q0 -63 -40 -103.5t-101 -40.5t-102.5 41.5t-41.5 102.5zM852 1696q0 56 43 97.5t100 41.5q60 0 101 -40.5t41 -98.5q0 -63 -40 -103.5t-102 -40.5q-60 0 -101.5 41.5t-41.5 102.5z" />
<glyph unicode="&#x2c6;" d="M264 1036l311 371h173l159 -371h-96l-174 172l-258 -172h-115z" />
<glyph unicode="&#x2dc;" d="M307 1065q36 140 86 203t125 63q19 0 42 -3t48 -9l124 -29q12 -3 24.5 -4.5t23.5 -1.5q44 0 71.5 21.5t45.5 68.5h72q-30 -136 -81.5 -198t-133.5 -62q-18 0 -34.5 2t-31.5 6l-109 25q-5 1 -14 3q-49 11 -63 11q-43 0 -71.5 -23t-47.5 -73h-76z" />
<glyph unicode="&#x2013;" d="M-57 356l53 189h971l-52 -189h-972z" />
<glyph unicode="&#x2014;" horiz-adv-x="2048" d="M-27 356l54 189h2048l-54 -189h-2048z" />
<glyph unicode="&#x2018;" horiz-adv-x="559" d="M193 977q0 164 105 280t277 142l7 -35q-136 -21 -208.5 -100.5t-74.5 -208.5q22 9 42 13.5t40 4.5q72 0 116 -40.5t44 -106.5q0 -80 -44 -128t-116 -48q-85 0 -136.5 62t-51.5 165z" />
<glyph unicode="&#x2019;" horiz-adv-x="559" d="M176 784q136 22 208.5 101.5t74.5 207.5q-25 -10 -45 -15t-37 -5q-72 0 -117 41.5t-45 108.5q0 80 44 128t116 48q85 0 136.5 -62t51.5 -166q0 -163 -105 -279.5t-278 -141.5z" />
<glyph unicode="&#x201a;" horiz-adv-x="569" d="M-31 -307q136 21 208.5 100.5t74.5 208.5q-22 -9 -42 -13.5t-40 -4.5q-72 0 -116 40.5t-44 106.5q0 80 44 128t116 48q85 0 136.5 -62t51.5 -165q0 -164 -105 -280t-278 -142z" />
<glyph unicode="&#x201c;" horiz-adv-x="1014" d="M197 977q0 164 105 280t278 142l6 -37q-136 -21 -208.5 -100t-74.5 -207q22 9 42 13.5t40 4.5q72 0 116 -41.5t44 -107.5q0 -81 -43 -128.5t-115 -47.5q-85 0 -137.5 63t-52.5 166zM649 977q0 164 105.5 280t277.5 142l4 -37q-136 -22 -208.5 -100.5t-73.5 -206.5 q21 9 42 13.5t42 4.5q71 0 115 -41.5t44 -107.5q0 -80 -43.5 -128t-115.5 -48q-85 0 -137 62.5t-52 166.5z" />
<glyph unicode="&#x201d;" horiz-adv-x="1014" d="M180 784q136 22 208.5 101.5t74.5 207.5q-25 -10 -44.5 -15t-37.5 -5q-72 0 -116 41.5t-44 108.5q0 80 43 128t115 48q85 0 137.5 -62t52.5 -166q0 -163 -105 -279.5t-278 -141.5zM631 784q137 22 210 101.5t74 207.5q-24 -10 -44.5 -15t-39.5 -5q-71 0 -115 41.5 t-44 108.5q0 80 43.5 128t115.5 48q86 0 137.5 -62t51.5 -166q0 -163 -105 -279.5t-278 -141.5z" />
<glyph unicode="&#x201e;" horiz-adv-x="1014" d="M-31 -307q136 21 208.5 100.5t74.5 208.5q-22 -9 -42 -13.5t-40 -4.5q-72 0 -116 40.5t-44 106.5q0 80 44 128t116 48q85 0 136.5 -62t51.5 -165q0 -164 -105 -280t-278 -142zM422 -307q135 21 208 101t74 208q-21 -9 -42 -13.5t-41 -4.5q-72 0 -116 40.5t-44 106.5 q0 80 44 128t116 48q85 0 136.5 -62t51.5 -165q0 -164 -105 -280t-278 -142z" />
<glyph unicode="&#x2022;" horiz-adv-x="1208" d="M307 762q0 123 87 209t210 86q122 0 208.5 -86.5t86.5 -208.5t-87.5 -209.5t-209.5 -87.5q-123 0 -209 87t-86 210z" />
<glyph unicode="&#x2026;" horiz-adv-x="2048" d="M55 160q0 77 53.5 130.5t130.5 53.5q78 0 131 -53.5t53 -130.5q0 -78 -53 -131.5t-131 -53.5q-77 0 -130.5 53.5t-53.5 131.5zM737 160q0 77 53.5 130.5t130.5 53.5q78 0 131 -53.5t53 -130.5q0 -78 -53 -131.5t-131 -53.5q-77 0 -130.5 53.5t-53.5 131.5zM1421 160 q0 77 53.5 130.5t130.5 53.5q78 0 131 -53.5t53 -130.5q0 -78 -53 -131.5t-131 -53.5q-77 0 -130.5 53.5t-53.5 131.5z" />
<glyph unicode="&#x2039;" horiz-adv-x="627" d="M74 455l171 136l189 165l23 -23q-33 -70 -84 -142t-119 -142q28 -75 47 -147.5t31 -143.5l-31 -15q-29 51 -81 122.5t-146 189.5z" />
<glyph unicode="&#x203a;" horiz-adv-x="627" d="M39 166q33 70 84 142t119 143q-28 74 -47.5 146.5t-30.5 143.5l31 15q29 -50 81 -121.5t146 -190.5l-171 -136l-190 -165z" />
<glyph unicode="&#x2122;" horiz-adv-x="1683" d="M217 1262l12 198h457l12 -198h-36q-7 79 -38 116t-92 37v-420q0 -21 8 -33.5t24 -15.5l30 -6v-33h-272v33l30 6q15 3 23 15.5t8 33.5v420h-4q-58 0 -89.5 -38t-37.5 -115h-35zM745 907v33l35 6q18 4 26.5 16t8.5 33v375q0 21 -9 33.5t-25 15.5l-36 6v35h222l127 -356 l123 356h206v-26l-22 -7q-19 -4 -27 -15t-8 -34v-383q0 -22 8 -33t27 -16l22 -6v-33h-260v33l30 6q18 3 27 15.5t9 33.5v355l-148 -445h-43l-166 457v-367q0 -22 9 -34t27 -15l34 -6v-33h-197z" />
<glyph unicode="&#xe000;" horiz-adv-x="925" d="M0 925h925v-925h-925v925z" />
<glyph unicode="&#xfb01;" horiz-adv-x="1269" d="M618 174q0 41 26 135q5 15 7 23l151 538h-116l10 31q20 0 57 -1t53 -1q108 0 199.5 5.5t165.5 17.5l-205 -709q-1 -4 -3 -11q-15 -51 -15 -71q0 -27 12.5 -42t34.5 -15q24 0 58 32.5t87 106.5l25 -16q-80 -118 -158 -170t-176 -52q-103 0 -158 51.5t-55 147.5zM886 1169 q0 72 50 121t122 49q73 0 121.5 -48.5t48.5 -121.5q0 -72 -49 -122t-121 -50t-122 50t-50 122zM-422 -362q0 55 34.5 92t86.5 37t87.5 -35.5t35.5 -87.5q0 -42 -17.5 -71t-54.5 -46h10q52 0 90.5 44.5t65.5 135.5q15 49 86 437.5t162 725.5h-182l12 31h176q71 246 206 384 t304 138q79 0 126.5 -38t47.5 -101q0 -55 -34 -90t-87 -35q-52 0 -86.5 32t-34.5 81q0 38 20 69t60 56h-14q-71 0 -110.5 -97.5t-75.5 -398.5h196l-10 -31h-191q-42 -378 -139.5 -661t-255.5 -485q-90 -115 -177 -173.5t-167 -58.5q-71 0 -120.5 42.5t-49.5 103.5z" />
<glyph unicode="&#xfb02;" horiz-adv-x="1269" d="M618 174q0 44 28 141q3 11 5 17l289 1003h-117l12 31q17 -1 37.5 -1.5t58.5 -0.5q125 0 222.5 13t160.5 38l-350 -1204q-8 -29 -12 -48t-4 -32q0 -27 12.5 -42t34.5 -15q24 0 58 32.5t87 106.5l25 -16q-80 -118 -158 -170t-176 -52q-103 0 -158 51.5t-55 147.5z M-422 -362q0 55 34.5 92t86.5 37t87.5 -35.5t35.5 -87.5q0 -42 -17.5 -71t-54.5 -46h10q52 0 90.5 44.5t65.5 135.5q15 49 86 437.5t162 725.5h-182l12 31h176q71 246 206 384t304 138q79 0 126.5 -38t47.5 -101q0 -55 -34 -90t-87 -35q-52 0 -86.5 32t-34.5 81q0 38 20 69 t60 56h-14q-71 0 -110.5 -97.5t-75.5 -398.5h196l-10 -31h-191q-42 -378 -139.5 -661t-255.5 -485q-90 -115 -177 -173.5t-167 -58.5q-71 0 -120.5 42.5t-49.5 103.5z" />
<glyph unicode="&#xfb03;" horiz-adv-x="1885" d="M1234 174q0 41 26 135q5 15 7 23l151 538h-116l10 31q20 0 57 -1t53 -1q108 0 199.5 5.5t165.5 17.5l-205 -709q-1 -4 -3 -11q-15 -51 -15 -71q0 -27 12.5 -42t34.5 -15q24 0 58 32.5t87 106.5l25 -16q-80 -118 -158 -170t-176 -52q-103 0 -158 51.5t-55 147.5z M1502 1169q0 72 50 121t122 49q73 0 121.5 -48.5t48.5 -121.5q0 -72 -49 -122t-121 -50t-122 50t-50 122zM194 -362q0 55 34.5 92t86.5 37t87.5 -35.5t35.5 -87.5q0 -42 -17.5 -71t-54.5 -46h10q52 0 90.5 44.5t65.5 135.5q15 49 86 437.5t162 725.5h-182l12 31h176 q71 246 206 384t304 138q79 0 126.5 -38t47.5 -101q0 -55 -34 -90t-87 -35q-52 0 -86.5 32t-34.5 81q0 38 20 69t60 56h-14q-71 0 -110.5 -97.5t-75.5 -398.5h196l-10 -31h-191q-42 -378 -139.5 -661t-255.5 -485q-90 -115 -177 -173.5t-167 -58.5q-71 0 -120.5 42.5 t-49.5 103.5zM-422 -362q0 55 34.5 92t86.5 37t87.5 -35.5t35.5 -87.5q0 -42 -17.5 -71t-54.5 -46h10q52 0 90.5 44.5t65.5 135.5q15 49 86 437.5t162 725.5h-182l12 31h176q71 246 206 384t304 138q79 0 126.5 -38t47.5 -101q0 -55 -34 -90t-87 -35q-52 0 -86.5 32 t-34.5 81q0 38 20 69t60 56h-14q-71 0 -110.5 -97.5t-75.5 -398.5h196l-10 -31h-191q-42 -378 -139.5 -661t-255.5 -485q-90 -115 -177 -173.5t-167 -58.5q-71 0 -120.5 42.5t-49.5 103.5z" />
<glyph unicode="&#xfb04;" horiz-adv-x="1885" d="M1234 174q0 44 28 141q3 11 5 17l289 1003h-117l12 31q17 -1 37.5 -1.5t58.5 -0.5q125 0 222.5 13t160.5 38l-350 -1204q-8 -29 -12 -48t-4 -32q0 -27 12.5 -42t34.5 -15q24 0 58 32.5t87 106.5l25 -16q-80 -118 -158 -170t-176 -52q-103 0 -158 51.5t-55 147.5z M194 -362q0 55 34.5 92t86.5 37t87.5 -35.5t35.5 -87.5q0 -42 -17.5 -71t-54.5 -46h10q52 0 90.5 44.5t65.5 135.5q15 49 86 437.5t162 725.5h-182l12 31h176q71 246 206 384t304 138q79 0 126.5 -38t47.5 -101q0 -55 -34 -90t-87 -35q-52 0 -86.5 32t-34.5 81q0 38 20 69 t60 56h-14q-71 0 -110.5 -97.5t-75.5 -398.5h196l-10 -31h-191q-42 -378 -139.5 -661t-255.5 -485q-90 -115 -177 -173.5t-167 -58.5q-71 0 -120.5 42.5t-49.5 103.5zM-422 -362q0 55 34.5 92t86.5 37t87.5 -35.5t35.5 -87.5q0 -42 -17.5 -71t-54.5 -46h10q52 0 90.5 44.5 t65.5 135.5q15 49 86 437.5t162 725.5h-182l12 31h176q71 246 206 384t304 138q79 0 126.5 -38t47.5 -101q0 -55 -34 -90t-87 -35q-52 0 -86.5 32t-34.5 81q0 38 20 69t60 56h-14q-71 0 -110.5 -97.5t-75.5 -398.5h196l-10 -31h-191q-42 -378 -139.5 -661t-255.5 -485 q-90 -115 -177 -173.5t-167 -58.5q-71 0 -120.5 42.5t-49.5 103.5z" />
</font>
</defs>
</svg>
